<svg xmlns="http://www.w3.org/2000/svg" xmlns:xlink="http://www.w3.org/1999/xlink" width="300" zoomAndPan="magnify" viewBox="0 0 224.87999 225" height="300" preserveAspectRatio="xMidYMid meet" version="1"><defs><clipPath id="id1"><path d="M 0 0.1 L 224.8 0.1 L 224.8 224.9 L 0 224.9 Z M 0 0.1" clip-rule="nonzero"/></clipPath><clipPath id="id2"><path d="M 45 15.3 L 221.9 15.3 L 221.9 141 L 45 141 Z M 45 15.3" clip-rule="nonzero"/></clipPath></defs><g clip-path="url(#id1)"><path fill="#ffffff" d="M 0 0.1 L 224.9 0.1 L 224.9 232.4 L 0 232.4 Z M 0 0.1" fill-opacity="1" fill-rule="nonzero"/><path fill="#ffffff" d="M 0 0.1 L 224.9 0.1 L 224.9 224.9 L 0 224.9 Z M 0 0.1" fill-opacity="1" fill-rule="nonzero"/><path fill="#ffffff" d="M 0 0.1 L 224.9 0.1 L 224.9 224.9 L 0 224.9 Z M 0 0.1" fill-opacity="1" fill-rule="nonzero"/><path fill="#ffffff" d="M 0 0.1 L 224.9 0.1 L 224.9 224.9 L 0 224.9 Z M 0 0.1" fill-opacity="1" fill-rule="nonzero"/></g><path stroke="rgb(181, 33, 33)" fill="#000000" d="M 170.6 189.3 L 133.8 164.8 C 132.1 163.7 129.8 163.9 128.7 165.6 L 117.9 179.3 C 114.4 183.8 108.3 185.2 103.3 182.3 L 101.3 181.3 C 94.2 177.3 85.3 172.4 67.5 154.8 C 49.8 137.2 45 128.3 41.2 121.2 L 40 119.2 C 37.3 114.2 38.5 108 43 104.5 L 56.8 93.8 C 58.5 92.5 58.8 90.3 57.7 88.7 L 33.1 52 C 32 50.3 29.9 49.8 28 50.8 L 12.8 60 C 9.4 62 6.9 65 5.9 68.8 C 0.9 87.2 5.1 119.3 54 168.3 C 103 217.3 135.3 221.6 153.7 216.4 C 157.3 215.4 160.4 212.9 162.4 209.7 L 171.7 194.3 C 172.7 192.6 172.2 190.3 170.6 189.3 Z M 170.6 189.3" fill-opacity="1" fill-rule="nonzero"/><g transform="matrix(1,0,0,1,0,0)" fill="currentColor" clip-path="url(#id2)"><path transform="matrix(1,0,0,1,6.8,-1.5)" fill="#000000" d="M 217.6 15.8 C 217.2 15.4 216.7 15.2 216.1 15.2 L 52.8 15.2 C 52.2 15.2 51.7 15.4 51.3 15.8 C 50.9 16.2 50.7 16.8 50.7 17.4 L 50.7 74.1 L 59.9 88 C 63.3 93 62.2 99.8 57.4 103.5 L 43.6 114.2 C 42.2 115.3 41.7 117.4 42.6 119 L 43.8 121 C 47.3 127.8 51.7 134.2 56.8 140 L 216.1 140 C 217.3 140 218.2 139 218.3 137.9 L 218.3 17.4 C 218.3 16.8 218 16.2 217.6 15.8 Z M 106.9 86.7 L 106.9 86.7 L 67 129.4 C 65.5 131 63 131.1 61.5 129.6 C 59.9 128.2 59.8 125.7 61.3 124.1 L 101.2 81.4 C 102.7 79.8 105.1 79.7 106.7 81.2 C 108.3 82.7 108.4 85.1 106.9 86.7 Z M 134.5 83.6 C 131.6 83.6 128.9 82.7 126.7 81 L 61.5 31.7 C 59.8 30.4 59.5 27.9 60.8 26.2 C 62.1 24.5 64.5 24.1 66.3 25.5 L 131.4 74.8 C 133.2 76.2 135.7 76.2 137.5 74.8 L 202.7 25.5 C 204.4 24.2 206.8 24.5 208.1 26.2 C 209.4 27.9 209.1 30.4 207.4 31.7 L 142.3 81 C 140 82.7 137.3 83.6 134.5 83.6 Z M 207.7 129.6 C 206.9 130.3 205.9 130.7 204.9 130.7 C 203.9 130.6 202.9 130.2 202.2 129.4 L 162.3 86.7 C 160.9 85.1 161 82.7 162.6 81.3 C 164.1 79.9 166.5 79.9 168 81.4 L 207.9 124.1 C 209.4 125.7 209.3 128.2 207.7 129.6 Z M 207.7 129.6" fill-opacity="0.4" fill-rule="nonzero"/></g>
    <path d="M 150.6 213 S 201 284 201 284 S 84 277 84 277 S 109 251 109 251 S 81.6 188.3 109 250 S 144.6 200.3 194 267 S 140 203 140 203" fill="rgb(50, 9, 232)" stroke="rgb(181, 33, 33)"/>
    <linearGradient id="y3ms0bcd"/>
    <radialGradient id="nbkz8dn3"/></svg>