<svg xmlns="http://www.w3.org/2000/svg" xmlns:xlink="http://www.w3.org/1999/xlink" width="300" zoomAndPan="magnify" viewBox="0 0 224.87999 225" height="300" preserveAspectRatio="xMidYMid meet" version="1.0"><defs><clipPath id="id1"><path d="M 1.402344 0.808594 L 223.285156 0.808594 L 223.285156 222.691406 L 1.402344 222.691406 Z M 1.402344 0.808594 " clip-rule="nonzero"/></clipPath></defs><g clip-path="url(#id1)"><path fill="#040606" d="M 112.34375 0.808594 C 51.144531 0.808594 1.402344 50.554688 1.402344 111.75 C 1.402344 172.949219 51.144531 222.691406 112.34375 222.691406 C 173.539062 222.691406 223.285156 172.949219 223.285156 111.75 C 223.113281 50.554688 173.367188 0.808594 112.34375 0.808594 Z M 186.019531 141.664062 C 186.019531 152.605469 177.128906 161.664062 166.019531 161.664062 L 58.324219 161.664062 C 47.214844 161.664062 38.324219 152.605469 38.324219 141.664062 L 38.324219 65.082031 C 38.324219 64.398438 38.496094 63.886719 38.839844 63.375 C 38.839844 63.203125 39.007812 63.203125 39.007812 63.03125 C 39.351562 62.691406 39.691406 62.347656 40.035156 62.007812 C 40.035156 62.007812 40.035156 61.835938 40.207031 61.835938 C 40.71875 61.664062 41.0625 61.492188 41.574219 61.492188 L 182.601562 61.492188 C 183.113281 61.492188 183.625 61.664062 183.96875 61.835938 C 183.96875 61.835938 183.96875 62.007812 184.136719 62.007812 C 184.652344 62.175781 184.992188 62.519531 185.164062 63.03125 C 185.335938 63.203125 185.335938 63.203125 185.335938 63.375 C 185.675781 63.886719 185.847656 64.398438 185.847656 65.082031 Z M 186.019531 141.664062 " fill-opacity="1" fill-rule="nonzero"/></g><path fill="#040606" d="M 173.027344 68.503906 L 112.34375 117.902344 L 51.488281 68.503906 Z M 173.027344 68.503906 " fill-opacity="1" fill-rule="nonzero"/><path fill="#040606" d="M 179.179688 141.664062 C 179.179688 148.84375 173.199219 154.828125 166.019531 154.828125 L 58.324219 154.828125 C 51.144531 154.828125 45.164062 148.84375 45.164062 141.664062 L 45.164062 72.261719 L 109.949219 124.914062 C 111.148438 125.9375 113.027344 125.9375 114.222656 124.914062 L 179.179688 72.261719 Z M 179.179688 141.664062 " fill-opacity="1" fill-rule="nonzero"/></svg>