<svg width="297" height="339" viewBox="0 0 297 339" fill="none" xmlns="http://www.w3.org/2000/svg">
<path d="M64.6082 73.0264C67.8882 76.1571 71.1781 77.7297 76.1123 77.744L273.558 78.3157C278.493 78.33 281.787 76.7765 285.086 73.6649L175.065 1.51508L64.6082 73.0264Z" fill="#E1C908"/>
<rect x="84" y="52" width="183" height="153" fill="url(#paint0_linear_4_2)"/>
<path d="M174.99 169.745L147.022 148.261L64.7473 211.159C68.0366 212.69 71.3258 214.226 76.26 214.227L273.704 214.25C278.638 214.251 281.932 212.715 285.222 209.649L202.963 148.267L174.99 169.745Z" fill="#E1C908"/>
<path d="M70.3584 131.887C64.9988 130.507 64.0243 130.047 64.0243 130.047L64.0307 76.7127L138.573 142.01L90.817 184.304C90.817 184.304 92.7663 181.546 92.7666 179.247C92.7668 176.948 75.7181 133.267 70.3584 131.887Z" fill="#E1C908" stroke="#E1C908" stroke-width="1.06098"/>
<path d="M211.003 141.755L286.439 205.132L286.455 76.8541L211.003 141.755Z" fill="#E1C908"/>
<path d="M39.708 138.861C39.708 138.861 -6.97432 157.597 11.0951 197.561C29.1645 237.521 53.1377 269.766 75.7629 284.151C98.3881 298.536 156.864 336.484 195.431 315.449C195.431 315.449 213.776 303.588 224.959 288.374L159.644 270.76C159.644 270.76 148.816 285.161 134.61 277.041C120.404 268.921 68.2224 225.825 68.2224 225.825C68.2224 225.825 52.7081 211.407 67.094 196.998L39.708 138.861Z" fill="#E1C908"/>
<path d="M45.195 136.74C45.195 136.74 48.3472 134.164 56.5645 135.065C64.7868 135.967 66.0554 138.879 66.0554 138.879L84.1248 178.843C84.1248 178.843 83.3072 181.885 81.8857 185.151C80.4591 188.427 74.0529 194.987 71.8199 193.129C69.5919 191.27 45.195 136.74 45.195 136.74Z" fill="#E1C908"/>
<path d="M161.883 264.879L172.512 252.854C172.512 252.854 175.309 251.097 181.45 252.123C187.592 253.153 221.546 262.482 221.546 262.482C221.546 262.482 227.327 264.327 227.88 268.877C228.433 273.427 229.183 283.345 229.183 283.345L161.883 264.879Z" fill="#E1C908"/>
<defs>
<linearGradient id="paint0_linear_4_2" x1="175.5" y1="52" x2="175.5" y2="205" gradientUnits="userSpaceOnUse">
<stop stop-color="white"/>
<stop offset="1" stop-color="#E1C908"/>
</linearGradient>
</defs>
</svg>
