<svg xmlns="http://www.w3.org/2000/svg" xmlns:xlink="http://www.w3.org/1999/xlink" width="300" zoomAndPan="magnify" viewBox="0 0 224.87999 225" height="300" preserveAspectRatio="xMidYMid meet" version="1.0"><defs><clipPath id="id1"><path d="M 1.71875 5 L 222.851562 5 L 222.851562 224 L 1.71875 224 Z M 1.71875 5 " clip-rule="nonzero"/></clipPath></defs><g clip-path="url(#id1)"><path fill="#040606" d="M 112.285156 5.34375 C 51.226562 5.34375 1.71875 54.847656 1.71875 115.910156 C 1.71875 167.71875 37.394531 211.070312 85.492188 223.066406 C 84.976562 221.574219 84.644531 219.839844 84.644531 217.695312 L 84.644531 198.796875 C 80.15625 198.796875 72.640625 198.796875 70.75 198.796875 C 63.183594 198.796875 56.460938 195.542969 53.199219 189.5 C 49.578125 182.78125 48.949219 172.507812 39.976562 166.226562 C 37.3125 164.132812 39.339844 161.746094 42.410156 162.070312 C 48.074219 163.671875 52.773438 167.5625 57.195312 173.328125 C 61.601562 179.105469 63.671875 180.414062 71.902344 180.414062 C 75.890625 180.414062 81.863281 180.183594 87.480469 179.300781 C 90.503906 171.625 95.730469 164.558594 102.113281 161.222656 C 65.296875 157.433594 47.722656 139.117188 47.722656 114.25 C 47.722656 103.542969 52.285156 93.1875 60.035156 84.460938 C 57.492188 75.800781 54.292969 58.136719 61.011719 51.410156 C 77.578125 51.410156 87.59375 62.15625 89.996094 65.058594 C 98.253906 62.230469 107.320312 60.625 116.847656 60.625 C 126.390625 60.625 135.496094 62.230469 143.769531 65.074219 C 146.148438 62.191406 156.171875 51.410156 172.773438 51.410156 C 179.519531 58.148438 176.285156 75.882812 173.714844 84.527344 C 181.417969 93.234375 185.949219 103.5625 185.949219 114.25 C 185.949219 139.101562 168.40625 157.40625 131.644531 161.214844 C 141.761719 166.492188 149.140625 181.328125 149.140625 192.503906 L 149.140625 217.695312 C 149.140625 218.652344 148.929688 219.34375 148.820312 220.164062 C 191.902344 205.0625 222.851562 164.152344 222.851562 115.910156 C 222.851562 54.847656 173.347656 5.34375 112.285156 5.34375 Z M 112.285156 5.34375 " fill-opacity="1" fill-rule="nonzero"/></g></svg>