<svg xmlns="http://www.w3.org/2000/svg" xmlns:xlink="http://www.w3.org/1999/xlink" width="300" zoomAndPan="magnify" viewBox="0 0 224.87999 225" height="300" preserveAspectRatio="xMidYMid meet" version="1.0"><defs><clipPath id="id1"><path d="M 1.324219 1.382812 L 223.203125 1.382812 L 223.203125 223.265625 L 1.324219 223.265625 Z M 1.324219 1.382812 " clip-rule="nonzero"/></clipPath></defs><g clip-path="url(#id1)"><path fill="#040606" d="M 112.265625 1.382812 C 50.996094 1.382812 1.324219 51.058594 1.324219 112.324219 C 1.324219 173.589844 50.996094 223.265625 112.265625 223.265625 C 173.53125 223.265625 223.203125 173.589844 223.203125 112.324219 C 223.203125 51.058594 173.53125 1.382812 112.265625 1.382812 Z M 70.625 51.335938 C 78.410156 51.335938 83.59375 56.519531 83.59375 63.4375 C 83.59375 70.351562 78.410156 75.539062 69.765625 75.539062 C 61.980469 75.546875 56.792969 70.351562 56.792969 63.4375 C 56.792969 56.519531 61.980469 51.335938 70.625 51.335938 Z M 84.527344 158.550781 L 56.792969 158.550781 L 56.792969 84.589844 L 84.527344 84.589844 Z M 176.980469 158.550781 L 150.871094 158.550781 L 150.871094 118.128906 C 150.871094 106.953125 143.910156 104.375 141.300781 104.375 C 138.695312 104.375 129.988281 106.09375 129.988281 118.128906 C 129.988281 119.847656 129.988281 158.550781 129.988281 158.550781 L 103.019531 158.550781 L 103.019531 84.589844 L 129.996094 84.589844 L 129.996094 94.90625 C 133.472656 88.886719 140.433594 84.589844 153.488281 84.589844 C 166.542969 84.589844 176.980469 94.90625 176.980469 118.128906 Z M 176.980469 158.550781 " fill-opacity="1" fill-rule="nonzero"/></g></svg>