<svg xmlns="http://www.w3.org/2000/svg" xmlns:xlink="http://www.w3.org/1999/xlink" width="300" zoomAndPan="magnify" viewBox="0 0 224.87999 225" height="300" preserveAspectRatio="xMidYMid meet" version="1.0"><defs><clipPath id="id1"><path d="M 11.78125 10.335938 L 214.921875 10.335938 L 214.921875 213.476562 L 11.78125 213.476562 Z M 11.78125 10.335938 " clip-rule="nonzero"/></clipPath></defs><g clip-path="url(#id1)"><path stroke-linecap="round" transform="matrix(4.062831, 0, 0, 4.062831, 11.781475, 10.33662)" fill="none" stroke-linejoin="round" d="M 39.999569 0.99975 L 10.000091 0.99975 C 4.999537 0.99975 0.999863 5.000386 0.999863 9.999978 L 0.999863 40.000417 C 0.999863 45.00001 4.999537 48.999684 10.000091 48.999684 L 39.999569 48.999684 C 45.000122 48.999684 48.999796 45.00001 48.999796 40.000417 L 48.999796 9.999978 C 48.999796 5.000386 45.000122 0.99975 39.999569 0.99975 Z M 39.999569 0.99975 " stroke="#000000" stroke-width="2" stroke-opacity="1" stroke-miterlimit="10"/></g><path stroke-linecap="round" transform="matrix(4.062831, 0, 0, 4.062831, 11.781475, 10.33662)" fill="none" stroke-linejoin="round" d="M 8.000254 19.000206 L 15.999602 19.000206 L 15.999602 42.000254 L 8.000254 42.000254 Z M 8.000254 19.000206 " stroke="#000000" stroke-width="2" stroke-opacity="1" stroke-miterlimit="10"/><path stroke-linecap="round" transform="matrix(4.062831, 0, 0, 4.062831, 11.781475, 10.33662)" fill="none" stroke-linejoin="round" d="M 11.999928 16.50041 C 9.600124 16.50041 8.000254 14.799587 8.000254 12.699758 C 8.000254 10.599929 9.600124 9.00006 11.999928 9.00006 C 14.399732 9.00006 15.89961 10.599929 15.999602 12.699758 C 15.999602 14.799587 14.499724 16.50041 11.999928 16.50041 Z M 11.999928 16.50041 " stroke="#000000" stroke-width="1.976" stroke-opacity="1" stroke-miterlimit="10"/><path stroke-linecap="round" transform="matrix(4.062831, 0, 0, 4.062831, 11.781475, 10.33662)" fill="none" stroke-linejoin="round" d="M 42.000367 42.000254 L 34.000058 42.000254 C 34.000058 42.000254 34.000058 29.900279 34.000058 29.000352 C 34.000058 28.100426 33.900066 24.999717 30.500343 24.999717 C 27.499626 24.999717 26.999667 27.900442 26.999667 29.000352 C 26.999667 30.100263 26.999667 42.000254 26.999667 42.000254 L 19.000319 42.000254 L 19.000319 19.000206 L 26.999667 19.000206 L 26.999667 22.099953 C 26.999667 22.099953 28.599536 19.000206 33.300115 19.000206 C 38.099723 19.000206 42.000367 22.299937 42.000367 29.000352 Z M 42.000367 42.000254 " stroke="#000000" stroke-width="2" stroke-opacity="1" stroke-miterlimit="10"/></svg>