<svg xmlns="http://www.w3.org/2000/svg" xmlns:xlink="http://www.w3.org/1999/xlink" width="300" zoomAndPan="magnify" viewBox="0 0 224.87999 225" height="300" preserveAspectRatio="xMidYMid meet" version="1.0"><defs><clipPath id="id1"><path d="M 10.0625 10.121094 L 214.703125 10.121094 L 214.703125 214.761719 L 10.0625 214.761719 Z M 10.0625 10.121094 " clip-rule="nonzero"/></clipPath></defs><g clip-path="url(#id1)"><path fill="#000000" d="M 163.257812 10.203125 L 61.34375 10.203125 C 33.105469 10.203125 10.0625 33.246094 10.0625 61.484375 L 10.0625 163.5625 C 10.0625 191.636719 33.105469 214.679688 61.34375 214.679688 L 163.421875 214.679688 C 191.65625 214.679688 214.703125 191.636719 214.703125 163.398438 L 214.703125 61.484375 C 214.539062 33.246094 191.496094 10.203125 163.257812 10.203125 Z M 78.222656 175.734375 L 49.011719 175.734375 L 49.011719 91.34375 L 78.222656 91.34375 Z M 63.453125 78.363281 C 55.175781 78.363281 48.523438 71.707031 48.523438 63.433594 C 48.523438 55.15625 55.175781 48.5 63.453125 48.5 C 71.730469 48.5 78.382812 55.15625 78.382812 63.433594 C 78.222656 71.707031 71.566406 78.363281 63.453125 78.363281 Z M 175.589844 175.734375 L 151.25 175.734375 L 151.25 134.835938 C 151.25 124.9375 149.949219 112.28125 136.480469 112.28125 C 122.6875 112.28125 120.414062 122.992188 120.414062 134.1875 L 120.414062 175.734375 L 96.074219 175.734375 L 96.074219 91.34375 L 118.792969 91.34375 L 118.792969 102.703125 L 119.441406 102.703125 C 123.011719 96.214844 131.289062 91.183594 144.269531 91.183594 C 171.046875 91.183594 175.753906 106.601562 175.753906 129.480469 L 175.753906 175.734375 Z M 175.589844 175.734375 " fill-opacity="1" fill-rule="nonzero"/></g></svg>