<svg xmlns="http://www.w3.org/2000/svg" xmlns:xlink="http://www.w3.org/1999/xlink" width="300" zoomAndPan="magnify" viewBox="0 0 224.87999 225" height="300" preserveAspectRatio="xMidYMid meet" version="1.0"><defs><clipPath id="id1"><path d="M 143 69 L 212.742188 69 L 212.742188 159 L 143 159 Z M 143 69 " clip-rule="nonzero"/></clipPath><clipPath id="id2"><path d="M 8.101562 69 L 78 69 L 78 159 L 8.101562 159 Z M 8.101562 69 " clip-rule="nonzero"/></clipPath><clipPath id="id3"><path d="M 8.101562 43.328125 L 212.742188 43.328125 L 212.742188 122 L 8.101562 122 Z M 8.101562 43.328125 " clip-rule="nonzero"/></clipPath><clipPath id="id4"><path d="M 8.101562 122 L 212.742188 122 L 212.742188 184.25 L 8.101562 184.25 Z M 8.101562 122 " clip-rule="nonzero"/></clipPath></defs><g clip-path="url(#id1)"><path fill="#000000" d="M 212.742188 69.308594 L 212.742188 158.527344 L 143.753906 114.839844 Z M 212.742188 69.308594 " fill-opacity="1" fill-rule="nonzero"/></g><g clip-path="url(#id2)"><path fill="#000000" d="M 77.089844 114.839844 L 8.101562 158.527344 L 8.101562 69.308594 Z M 77.089844 114.839844 " fill-opacity="1" fill-rule="nonzero"/></g><g clip-path="url(#id3)"><path fill="#000000" d="M 212.359375 54.230469 C 211.398438 48.09375 206.335938 43.328125 199.953125 43.328125 L 20.890625 43.328125 C 14.507812 43.328125 9.445312 48.09375 8.484375 54.230469 L 110.421875 121.5 Z M 212.359375 54.230469 " fill-opacity="1" fill-rule="nonzero"/></g><g clip-path="url(#id4)"><path fill="#000000" d="M 113.9375 134.519531 C 112.863281 135.222656 111.648438 135.566406 110.421875 135.566406 C 109.195312 135.566406 107.980469 135.222656 106.90625 134.519531 L 88.808594 122.566406 L 8.511719 173.4375 C 9.496094 179.523438 14.535156 184.25 20.890625 184.25 L 199.953125 184.25 C 206.308594 184.25 211.347656 179.523438 212.332031 173.4375 L 132.039062 122.578125 Z M 113.9375 134.519531 " fill-opacity="1" fill-rule="nonzero"/></g></svg>