<svg xmlns="http://www.w3.org/2000/svg" xmlns:xlink="http://www.w3.org/1999/xlink" width="300" zoomAndPan="magnify" viewBox="0 0 224.87999 225" height="300" preserveAspectRatio="xMidYMid meet" version="1"><defs><clipPath id="id1"><path d="M 50.8 0.1 L 174.1 0.1 L 174.1 182.7 L 50.8 182.7 Z M 50.8 0.1" clip-rule="nonzero"/></clipPath><clipPath id="id2"><path d="M 79 192 L 145 192 L 145 224.9 L 79 224.9 Z M 79 192" clip-rule="nonzero"/></clipPath></defs><g transform="matrix(1.1,0,0,1,-7.7,2.3)" clip-path="url(#id1)"><path fill="blue" d="M 167.2 118.5 C 167.2 148 143.2 172 113.6 172 C 84.1 172 60.1 148 60.1 118.5 L 60.1 59.6 C 60.1 30.1 84.1 6.1 113.6 6.1 C 143.2 6.1 167.2 30.1 167.2 59.6 Z M 113.6 -2 C 79.6 -2 52 25.7 52 59.6 L 52 118.5 C 52 152.5 79.6 180.2 113.6 180.2 C 147.6 180.2 175.3 152.5 175.3 118.5 L 175.3 59.6 C 175.3 25.7 147.6 -2 113.6 -2" fill-opacity="1" fill-rule="nonzero"/></g><path fill="blue" d="M 112.4 40.2 C 114.7 40.2 116.5 38.4 116.5 36.1 L 116.5 19.4 C 116.5 17.1 114.7 15.3 112.4 15.3 C 110.2 15.3 108.4 17.1 108.4 19.4 L 108.4 36.1 C 108.4 38.4 110.2 40.2 112.4 40.2" fill-opacity="1" fill-rule="nonzero"/><path fill="blue" d="M 117.3 74.3 C 117.3 77 115.1 79.2 112.4 79.2 C 109.7 79.2 107.5 77 107.5 74.3 L 107.5 58.2 C 107.5 55.5 109.7 53.3 112.4 53.3 C 115.1 53.3 117.3 55.5 117.3 58.2 Z M 112.4 45.1 C 105.2 45.1 99.4 51 99.4 58.2 L 99.4 74.3 C 99.4 81.5 105.2 87.3 112.4 87.3 C 119.6 87.3 125.4 81.5 125.4 74.3 L 125.4 58.2 C 125.4 51 119.6 45.1 112.4 45.1" fill-opacity="1" fill-rule="nonzero"/><g transform="matrix(0.5,0.9,-1,0.4,268.9,20.7)"><g clip-path="url(#id2)">
            <path fill-opacity="1" fill="white" fill-rule="nonzero" d="M 139.4 190.3 L 113.6 211.9 L 87.9 190.3 C 86.1 188.8 83.6 189 82.1 190.8 C 80.7 192.5 80.9 195 82.6 196.5 L 111 220.4 C 111.8 221 112.7 221.3 113.6 221.3 C 114.6 221.3 115.5 221 116.3 220.4 L 144.7 196.5 C 146.4 195 146.6 192.5 145.2 190.8 C 143.7 189 141.1 188.8 139.4 190.3"/>
        </g></g></svg>