<svg xmlns="http://www.w3.org/2000/svg" xmlns:xlink="http://www.w3.org/1999/xlink" width="300" zoomAndPan="magnify" viewBox="0 0 224.87999 225" height="300" preserveAspectRatio="xMidYMid meet" version="1.0"><defs><clipPath id="id1"><path d="M 5 0.0585938 L 219.914062 0.0585938 L 219.914062 224.9375 L 5 224.9375 Z M 5 0.0585938 " clip-rule="nonzero"/></clipPath></defs><g clip-path="url(#id1)"><path fill="#ead003" d="M 112.246094 0.210938 C 111.710938 0.210938 111.171875 0.300781 110.65625 0.476562 L 8.542969 36.046875 C 6.378906 36.800781 5.023438 38.964844 5.304688 41.246094 L 21.445312 173.675781 C 21.636719 175.242188 22.5625 176.625 23.949219 177.375 L 110.046875 224.207031 C 110.769531 224.605469 111.570312 224.800781 112.371094 224.800781 C 113.175781 224.800781 113.988281 224.597656 114.714844 224.199219 L 201.25 176.726562 C 202.625 175.96875 203.558594 174.59375 203.746094 173.035156 L 219.875 40.617188 C 220.160156 38.324219 218.789062 36.140625 216.597656 35.398438 L 113.828125 0.457031 C 113.316406 0.285156 112.78125 0.207031 112.246094 0.210938 Z M 112.589844 24.613281 L 176.007812 161.324219 L 154.359375 161.324219 L 140.792969 132.070312 L 84.386719 132.070312 L 70.820312 161.324219 L 49.171875 161.324219 Z M 112.589844 70.996094 L 93.46875 112.5 L 131.714844 112.5 Z M 112.589844 70.996094 " fill-opacity="1" fill-rule="nonzero"/></g></svg>