<svg xmlns="http://www.w3.org/2000/svg" xmlns:xlink="http://www.w3.org/1999/xlink" width="300" zoomAndPan="magnify" viewBox="0 0 224.87999 225" height="300" preserveAspectRatio="xMidYMid meet" version="1.0"><defs><clipPath id="id1"><path d="M 11 8.828125 L 212 8.828125 L 212 218.714844 L 11 218.714844 Z M 11 8.828125 " clip-rule="nonzero"/></clipPath></defs><g clip-path="url(#id1)"><path fill="#ead003" d="M 96.886719 8.828125 C 92.558594 8.828125 88.734375 11.855469 87.875 16.097656 L 85.730469 26.792969 C 71.546875 30.964844 58.796875 38.109375 48.386719 48.039062 L 38.375 44.617188 C 34.296875 43.242188 29.824219 45.078125 27.644531 48.75 L 13.050781 73.847656 C 10.886719 77.589844 11.636719 82.402344 14.910156 85.253906 L 22.921875 92.382812 C 21.222656 99.261719 19.917969 106.339844 19.917969 113.769531 C 19.917969 121.203125 21.242188 128.277344 22.921875 135.160156 L 14.910156 142.289062 C 11.65625 145.140625 10.886719 149.953125 13.050781 153.695312 L 27.5 178.789062 C 29.664062 182.53125 34.261719 184.316406 38.375 182.925781 L 48.386719 179.503906 C 58.796875 189.429688 71.566406 196.578125 85.730469 200.75 L 87.875 211.441406 C 88.734375 215.667969 92.558594 218.714844 96.886719 218.714844 L 126.074219 218.714844 C 130.402344 218.714844 134.230469 215.683594 135.085938 211.441406 L 137.234375 200.75 C 151.414062 196.578125 164.164062 189.429688 174.574219 179.503906 L 184.589844 182.925781 C 188.664062 184.296875 193.136719 182.460938 195.320312 178.789062 L 209.910156 153.695312 C 212.074219 149.953125 211.304688 145.140625 208.050781 142.289062 L 200.039062 135.160156 C 201.722656 128.277344 203.042969 121.203125 203.042969 113.769531 C 203.042969 106.339844 201.722656 99.261719 200.039062 92.382812 L 208.050781 85.253906 C 211.304688 82.402344 212.074219 77.589844 209.910156 73.847656 L 195.460938 48.75 C 193.296875 45.007812 188.703125 43.226562 184.589844 44.617188 L 174.574219 48.039062 C 164.164062 38.109375 151.398438 30.964844 137.234375 26.792969 L 135.085938 16.097656 C 134.230469 11.875 130.402344 8.828125 126.074219 8.828125 Z M 96.886719 17.953125 L 126.074219 17.953125 L 129.222656 33.636719 L 131.941406 34.351562 C 146.746094 38.128906 159.925781 45.757812 170.28125 56.308594 L 172.285156 58.445312 L 175.144531 57.449219 L 187.449219 53.3125 L 202.042969 78.410156 L 192.171875 87.105469 L 190.023438 88.960938 L 190.742188 91.667969 C 192.707031 98.726562 193.886719 106.140625 193.886719 113.769531 C 193.886719 121.398438 192.707031 128.8125 190.742188 135.871094 L 190.023438 138.582031 L 192.171875 140.433594 L 202.042969 149.132812 L 187.449219 174.226562 L 175.003906 170.09375 L 172.285156 169.09375 L 170.28125 171.234375 C 159.925781 181.765625 146.746094 189.414062 131.941406 193.191406 L 129.222656 193.90625 L 126.074219 209.589844 L 96.886719 209.589844 L 93.742188 193.90625 L 91.023438 193.191406 C 76.214844 189.414062 63.035156 181.785156 52.679688 171.234375 L 50.675781 169.09375 L 47.816406 170.09375 L 35.511719 174.226562 L 20.917969 149.132812 L 30.789062 140.433594 L 32.9375 138.582031 L 32.222656 135.871094 C 30.253906 128.8125 29.074219 121.398438 29.074219 113.769531 C 29.074219 106.140625 30.234375 98.726562 32.222656 91.667969 L 32.9375 88.960938 L 30.789062 87.105469 L 20.917969 78.410156 L 35.511719 53.3125 L 47.957031 57.449219 L 50.675781 58.445312 L 52.679688 56.308594 C 63.035156 45.773438 76.214844 38.128906 91.023438 34.351562 L 93.742188 33.636719 Z M 156.832031 81.6875 C 156.636719 81.722656 156.441406 81.777344 156.261719 81.832031 L 152.683594 81.832031 C 152.542969 81.832031 152.398438 81.832031 152.253906 81.832031 C 149.734375 81.957031 147.765625 84.09375 147.890625 86.609375 C 148.015625 89.121094 150.164062 91.082031 152.683594 90.957031 L 152.683594 136.585938 C 152.542969 136.585938 152.398438 136.585938 152.253906 136.585938 C 149.734375 136.710938 147.765625 138.847656 147.890625 141.359375 C 148.015625 143.875 150.164062 145.835938 152.683594 145.710938 L 161.839844 145.710938 C 163.484375 145.726562 165.023438 144.871094 165.863281 143.445312 C 166.6875 142.019531 166.6875 140.273438 165.863281 138.847656 C 165.023438 137.421875 163.484375 136.566406 161.839844 136.585938 L 161.839844 90.957031 C 163.484375 90.972656 165.023438 90.117188 165.863281 88.691406 C 166.6875 87.265625 166.6875 85.519531 165.863281 84.09375 C 165.023438 82.667969 163.484375 81.8125 161.839844 81.832031 L 158.121094 81.832031 C 157.710938 81.722656 157.261719 81.671875 156.832031 81.6875 Z M 71.992188 81.832031 C 70.152344 82.046875 68.632812 83.347656 68.132812 85.109375 L 52.109375 137.011719 C 51.984375 137.476562 51.929688 137.957031 51.964844 138.4375 L 51.964844 141.148438 C 51.945312 142.785156 52.804688 144.320312 54.234375 145.15625 C 55.667969 145.976562 57.417969 145.976562 58.851562 145.15625 C 60.28125 144.320312 61.140625 142.785156 61.121094 141.148438 L 61.121094 139.292969 L 63.410156 132.023438 L 81.722656 132.023438 L 84.011719 139.292969 L 84.011719 141.148438 C 83.992188 142.785156 84.851562 144.320312 86.28125 145.15625 C 87.714844 145.976562 89.464844 145.976562 90.898438 145.15625 C 92.328125 144.320312 93.1875 142.785156 93.167969 141.148438 L 93.167969 138.4375 C 93.203125 137.957031 93.148438 137.476562 93.023438 137.011719 L 77 85.109375 C 76.375 82.9375 74.246094 81.527344 71.992188 81.832031 Z M 106.042969 81.832031 C 103.863281 82.242188 102.289062 84.164062 102.324219 86.394531 L 102.324219 117.476562 C 102.199219 118.082031 102.199219 118.726562 102.324219 119.332031 L 102.324219 141.148438 C 102.304688 142.785156 103.164062 144.320312 104.59375 145.15625 C 106.027344 145.976562 107.777344 145.976562 109.210938 145.15625 C 110.640625 144.320312 111.5 142.785156 111.480469 141.148438 L 111.480469 122.894531 L 125.214844 122.894531 C 132.746094 122.894531 138.949219 116.710938 138.949219 109.207031 L 138.949219 95.519531 C 138.949219 88.015625 132.746094 81.832031 125.214844 81.832031 L 106.902344 81.832031 C 106.757812 81.832031 106.617188 81.832031 106.472656 81.832031 C 106.332031 81.832031 106.1875 81.832031 106.042969 81.832031 Z M 111.480469 90.957031 L 125.214844 90.957031 C 127.808594 90.957031 129.792969 92.933594 129.792969 95.519531 L 129.792969 109.207031 C 129.792969 111.792969 127.808594 113.769531 125.214844 113.769531 L 111.480469 113.769531 Z M 72.566406 102.078125 L 79.003906 122.894531 L 66.128906 122.894531 Z M 72.566406 102.078125 " fill-opacity="1" fill-rule="nonzero"/></g></svg>