<svg xmlns="http://www.w3.org/2000/svg" xmlns:xlink="http://www.w3.org/1999/xlink" width="300" zoomAndPan="magnify" viewBox="0 0 224.87999 225" height="300" preserveAspectRatio="xMidYMid meet" version="1.0"><defs><clipPath id="id1"><path d="M 18 0.0585938 L 208 0.0585938 L 208 221.941406 L 18 221.941406 Z M 18 0.0585938 " clip-rule="nonzero"/></clipPath></defs><g clip-path="url(#id1)"><path fill="#ead003" d="M 207.675781 0.0585938 L 18.152344 0.0585938 L 35.378906 196.082031 L 112.914062 221.941406 L 190.453125 196.082031 Z M 170.316406 63.101562 L 113.257812 87.574219 L 168.292969 87.574219 L 161.976562 160.183594 L 113.515625 174.394531 L 64.757812 159.925781 L 61.597656 123.324219 L 85.726562 123.324219 L 87.304688 142.285156 L 113.265625 148.867188 L 140.261719 141.242188 L 142.082031 110.742188 L 59.902344 110.5 L 58.121094 87.574219 L 116.648438 63.101562 L 56.003906 63.101562 L 53.136719 39.675781 L 172.683594 39.675781 Z M 170.316406 63.101562 " fill-opacity="1" fill-rule="nonzero"/></g></svg>