<svg xmlns="http://www.w3.org/2000/svg" xmlns:xlink="http://www.w3.org/1999/xlink" width="300" zoomAndPan="magnify" viewBox="0 0 224.87999 225" height="300" preserveAspectRatio="xMidYMid meet" version="1.0"><defs><clipPath id="id1"><path d="M 36.378906 59 L 121 59 L 121 180 L 36.378906 180 Z M 36.378906 59 " clip-rule="nonzero"/></clipPath><clipPath id="id2"><path d="M 36.378906 46 L 197.542969 46 L 197.542969 223.441406 L 36.378906 223.441406 Z M 36.378906 46 " clip-rule="nonzero"/></clipPath><clipPath id="id3"><path d="M 36.378906 0.0585938 L 100 0.0585938 L 100 180 L 36.378906 180 Z M 36.378906 0.0585938 " clip-rule="nonzero"/></clipPath></defs><path fill="#ead003" d="M 142.539062 80.675781 L 120.214844 101.488281 L 99.503906 59.621094 L 110.222656 35.539062 C 113.011719 30.652344 117.359375 30.707031 120.078125 35.539062 Z M 142.539062 80.675781 " fill-opacity="1" fill-rule="nonzero"/><g clip-path="url(#id1)"><path fill="#e1c908" d="M 99.503906 59.621094 L 120.214844 101.488281 L 36.796875 179.253906 Z M 99.503906 59.621094 " fill-opacity="1" fill-rule="nonzero"/></g><g clip-path="url(#id2)"><path fill="#ead003" d="M 166.953125 48.867188 C 170.9375 45.023438 175.0625 46.335938 176.117188 51.777344 L 197.832031 178.21875 L 125.855469 221.519531 C 123.34375 222.917969 116.65625 223.519531 116.65625 223.519531 C 116.65625 223.519531 110.5625 222.792969 108.242188 221.421875 L 36.796875 179.253906 Z M 166.953125 48.867188 " fill-opacity="1" fill-rule="nonzero"/></g><g clip-path="url(#id3)"><path fill="#ead003" d="M 99.503906 59.621094 L 36.800781 179.253906 L 64.726562 4.414062 C 65.757812 -1.035156 68.851562 -1.558594 71.613281 3.246094 Z M 99.503906 59.621094 " fill-opacity="1" fill-rule="nonzero"/></g></svg>