<svg xmlns="http://www.w3.org/2000/svg" xmlns:xlink="http://www.w3.org/1999/xlink" width="300" zoomAndPan="magnify" viewBox="0 0 224.87999 225" height="300" preserveAspectRatio="xMidYMid meet" version="1.0"><defs><clipPath id="id1"><path d="M 5.140625 5.199219 L 219.523438 5.199219 L 219.523438 219.585938 L 5.140625 219.585938 Z M 5.140625 5.199219 " clip-rule="nonzero"/></clipPath></defs><g clip-path="url(#id1)"><path fill="#ead003" d="M 215.476562 102.847656 L 121.878906 9.246094 C 121.238281 8.605469 120.542969 8.03125 119.789062 7.527344 C 119.035156 7.023438 118.238281 6.601562 117.402344 6.253906 C 116.5625 5.90625 115.699219 5.644531 114.8125 5.46875 C 113.921875 5.289062 113.023438 5.203125 112.117188 5.203125 C 111.210938 5.203125 110.3125 5.289062 109.425781 5.46875 C 108.535156 5.644531 107.671875 5.90625 106.835938 6.253906 C 105.996094 6.601562 105.203125 7.023438 104.449219 7.527344 C 103.695312 8.03125 102.996094 8.605469 102.355469 9.246094 L 82.929688 28.675781 L 107.582031 53.328125 C 113.316406 51.320312 119.882812 52.691406 124.453125 57.261719 C 125.539062 58.351562 126.457031 59.570312 127.199219 60.917969 C 127.945312 62.265625 128.488281 63.6875 128.832031 65.1875 C 129.175781 66.6875 129.308594 68.207031 129.226562 69.746094 C 129.140625 71.28125 128.847656 72.777344 128.34375 74.230469 L 152.109375 97.996094 C 157.855469 96.011719 164.488281 97.292969 169.078125 101.894531 C 169.457031 102.273438 169.820312 102.671875 170.160156 103.089844 C 170.503906 103.503906 170.824219 103.9375 171.121094 104.382812 C 171.421875 104.832031 171.699219 105.292969 171.953125 105.769531 C 172.207031 106.242188 172.4375 106.730469 172.640625 107.226562 C 172.847656 107.722656 173.027344 108.230469 173.1875 108.746094 C 173.34375 109.257812 173.472656 109.78125 173.578125 110.308594 C 173.683594 110.835938 173.761719 111.367188 173.816406 111.90625 C 173.867188 112.441406 173.894531 112.976562 173.894531 113.515625 C 173.894531 114.054688 173.867188 114.589844 173.816406 115.125 C 173.761719 115.664062 173.683594 116.195312 173.578125 116.722656 C 173.472656 117.25 173.34375 117.773438 173.1875 118.285156 C 173.03125 118.800781 172.847656 119.308594 172.644531 119.804688 C 172.4375 120.304688 172.207031 120.789062 171.953125 121.261719 C 171.699219 121.738281 171.421875 122.199219 171.125 122.648438 C 170.824219 123.09375 170.503906 123.527344 170.164062 123.941406 C 169.820312 124.359375 169.460938 124.757812 169.078125 125.136719 C 168.699219 125.519531 168.300781 125.878906 167.882812 126.21875 C 167.46875 126.5625 167.035156 126.882812 166.589844 127.179688 C 166.140625 127.480469 165.679688 127.757812 165.203125 128.011719 C 164.730469 128.265625 164.242188 128.492188 163.746094 128.699219 C 163.25 128.90625 162.742188 129.085938 162.226562 129.242188 C 161.710938 129.398438 161.191406 129.527344 160.664062 129.632812 C 160.136719 129.738281 159.601562 129.816406 159.066406 129.871094 C 158.53125 129.921875 157.996094 129.949219 157.457031 129.949219 C 156.917969 129.949219 156.382812 129.921875 155.84375 129.867188 C 155.308594 129.816406 154.777344 129.738281 154.25 129.632812 C 153.722656 129.527344 153.199219 129.394531 152.683594 129.238281 C 152.171875 129.082031 151.664062 128.902344 151.167969 128.695312 C 150.667969 128.488281 150.183594 128.257812 149.710938 128.003906 C 149.234375 127.75 148.773438 127.472656 148.324219 127.175781 C 147.878906 126.875 147.445312 126.554688 147.03125 126.210938 C 146.613281 125.871094 146.21875 125.507812 145.835938 125.128906 C 141.011719 120.304688 139.820312 113.203125 142.257812 107.261719 L 120.097656 85.097656 L 120.097656 143.417969 C 121.714844 144.21875 123.167969 145.253906 124.453125 146.527344 C 124.832031 146.90625 125.191406 147.304688 125.535156 147.722656 C 125.875 148.136719 126.195312 148.570312 126.496094 149.015625 C 126.792969 149.464844 127.070312 149.925781 127.324219 150.398438 C 127.578125 150.875 127.808594 151.359375 128.011719 151.855469 C 128.21875 152.355469 128.398438 152.859375 128.554688 153.375 C 128.710938 153.890625 128.84375 154.410156 128.949219 154.9375 C 129.054688 155.464844 129.132812 156 129.183594 156.535156 C 129.238281 157.070312 129.261719 157.605469 129.261719 158.144531 C 129.261719 158.683594 129.238281 159.21875 129.183594 159.753906 C 129.132812 160.289062 129.054688 160.820312 128.949219 161.347656 C 128.84375 161.875 128.710938 162.398438 128.554688 162.914062 C 128.398438 163.429688 128.21875 163.933594 128.011719 164.429688 C 127.808594 164.929688 127.578125 165.414062 127.324219 165.886719 C 127.070312 166.363281 126.792969 166.824219 126.496094 167.269531 C 126.195312 167.71875 125.875 168.152344 125.535156 168.566406 C 125.191406 168.980469 124.832031 169.378906 124.453125 169.761719 C 124.070312 170.140625 123.671875 170.503906 123.257812 170.84375 C 122.839844 171.183594 122.410156 171.503906 121.960938 171.804688 C 121.515625 172.101562 121.054688 172.378906 120.578125 172.632812 C 120.105469 172.886719 119.617188 173.117188 119.121094 173.324219 C 118.625 173.527344 118.117188 173.710938 117.605469 173.867188 C 117.089844 174.023438 116.566406 174.152344 116.039062 174.257812 C 115.511719 174.363281 114.980469 174.441406 114.445312 174.492188 C 113.910156 174.546875 113.371094 174.574219 112.835938 174.574219 C 112.296875 174.574219 111.761719 174.546875 111.222656 174.492188 C 110.6875 174.441406 110.15625 174.363281 109.628906 174.257812 C 109.101562 174.152344 108.582031 174.023438 108.066406 173.867188 C 107.550781 173.710938 107.042969 173.527344 106.546875 173.324219 C 106.050781 173.117188 105.566406 172.886719 105.089844 172.632812 C 104.617188 172.378906 104.15625 172.101562 103.707031 171.804688 C 103.261719 171.503906 102.828125 171.183594 102.414062 170.84375 C 101.996094 170.503906 101.597656 170.140625 101.21875 169.761719 C 100.835938 169.378906 100.476562 168.984375 100.132812 168.566406 C 99.792969 168.152344 99.472656 167.71875 99.171875 167.273438 C 98.871094 166.824219 98.597656 166.363281 98.34375 165.890625 C 98.089844 165.414062 97.859375 164.929688 97.652344 164.433594 C 97.445312 163.933594 97.265625 163.429688 97.109375 162.914062 C 96.953125 162.398438 96.820312 161.878906 96.714844 161.351562 C 96.609375 160.820312 96.53125 160.289062 96.480469 159.753906 C 96.425781 159.21875 96.398438 158.683594 96.398438 158.144531 C 96.398438 157.605469 96.425781 157.070312 96.480469 156.535156 C 96.53125 155.996094 96.609375 155.464844 96.714844 154.9375 C 96.820312 154.410156 96.953125 153.890625 97.109375 153.375 C 97.265625 152.859375 97.445312 152.351562 97.652344 151.855469 C 97.859375 151.359375 98.089844 150.871094 98.34375 150.398438 C 98.597656 149.921875 98.871094 149.460938 99.171875 149.015625 C 99.472656 148.566406 99.792969 148.136719 100.132812 147.722656 C 100.476562 147.304688 100.835938 146.90625 101.21875 146.527344 C 102.804688 144.945312 104.566406 143.746094 106.597656 142.941406 L 106.597656 84.082031 C 104.640625 83.277344 102.804688 82.089844 101.21875 80.496094 C 100.644531 79.921875 100.117188 79.3125 99.632812 78.660156 C 99.148438 78.007812 98.71875 77.324219 98.335938 76.609375 C 97.953125 75.894531 97.628906 75.15625 97.355469 74.394531 C 97.082031 73.628906 96.867188 72.851562 96.710938 72.054688 C 96.554688 71.257812 96.457031 70.457031 96.421875 69.648438 C 96.382812 68.835938 96.40625 68.027344 96.488281 67.222656 C 96.570312 66.414062 96.710938 65.621094 96.910156 64.835938 C 97.109375 64.046875 97.367188 63.28125 97.679688 62.535156 L 73.359375 38.230469 L 9.179688 102.34375 C 8.539062 102.984375 7.964844 103.679688 7.460938 104.433594 C 6.957031 105.1875 6.53125 105.984375 6.183594 106.824219 C 5.835938 107.660156 5.574219 108.523438 5.398438 109.414062 C 5.21875 110.304688 5.132812 111.199219 5.132812 112.109375 C 5.132812 113.015625 5.21875 113.914062 5.398438 114.800781 C 5.574219 115.691406 5.835938 116.554688 6.183594 117.394531 C 6.53125 118.230469 6.957031 119.027344 7.460938 119.78125 C 7.964844 120.535156 8.539062 121.230469 9.179688 121.871094 L 102.785156 215.464844 C 103.425781 216.105469 104.125 216.679688 104.878906 217.183594 C 105.628906 217.6875 106.425781 218.113281 107.261719 218.457031 C 108.101562 218.804688 108.964844 219.066406 109.851562 219.246094 C 110.742188 219.421875 111.640625 219.511719 112.546875 219.511719 C 113.453125 219.511719 114.351562 219.421875 115.238281 219.246094 C 116.128906 219.066406 116.992188 218.804688 117.828125 218.457031 C 118.667969 218.113281 119.460938 217.6875 120.214844 217.183594 C 120.96875 216.679688 121.667969 216.105469 122.308594 215.464844 L 215.476562 122.441406 C 216.121094 121.800781 216.691406 121.105469 217.195312 120.351562 C 217.703125 119.597656 218.128906 118.800781 218.472656 117.960938 C 218.820312 117.125 219.082031 116.261719 219.261719 115.371094 C 219.4375 114.484375 219.527344 113.585938 219.527344 112.675781 C 219.527344 111.769531 219.4375 110.871094 219.261719 109.984375 C 219.082031 109.09375 218.820312 108.230469 218.472656 107.390625 C 218.128906 106.554688 217.703125 105.757812 217.195312 105.003906 C 216.691406 104.25 216.121094 103.554688 215.476562 102.914062 " fill-opacity="1" fill-rule="nonzero"/></g></svg>