<svg xmlns="http://www.w3.org/2000/svg" xmlns:xlink="http://www.w3.org/1999/xlink" width="300" zoomAndPan="magnify" viewBox="0 0 224.87999 225" height="300" preserveAspectRatio="xMidYMid meet" version="1.0"><defs><clipPath id="id1"><path d="M 18 1.691406 L 210 1.691406 L 210 224.9375 L 18 224.9375 Z M 18 1.691406 " clip-rule="nonzero"/></clipPath></defs><g clip-path="url(#id1)"><path fill="#ead003" d="M 191.757812 199.039062 L 209.117188 1.691406 L 18.132812 1.691406 L 35.488281 199.039062 L 113.375 225.070312 Z M 64.265625 164.089844 L 61.285156 126.289062 L 85.003906 126.289062 L 86.746094 145.289062 L 113.355469 152.519531 L 140.054688 145.289062 L 143.035156 114.265625 L 60.039062 114.265625 L 53.675781 41.667969 L 173.582031 41.667969 L 171.394531 65.449219 L 80.003906 65.449219 L 82.042969 90.085938 L 169.371094 90.085938 L 162.601562 164.078125 L 113.914062 177.546875 L 113.914062 177.695312 L 113.363281 177.695312 Z M 64.265625 164.089844 " fill-opacity="1" fill-rule="nonzero"/></g></svg>