<svg xmlns="http://www.w3.org/2000/svg" xmlns:xlink="http://www.w3.org/1999/xlink" width="300" zoomAndPan="magnify" viewBox="0 0 224.87999 225" height="300" preserveAspectRatio="xMidYMid meet" version="1.0"><defs><clipPath id="id1"><path d="M 0 0.0585938 L 224.761719 0.0585938 L 224.761719 224.9375 L 0 224.9375 Z M 0 0.0585938 " clip-rule="nonzero"/></clipPath></defs><g clip-path="url(#id1)"><path fill="#ead003" d="M 0 224.941406 L 224.878906 224.941406 L 224.878906 0.0585938 L 0 0.0585938 Z M 185.375 174.613281 C 182.988281 165.609375 164.285156 163.511719 151.496094 153.953125 C 138.5625 145.238281 135.480469 124.15625 146.164062 112.058594 C 149.816406 107.5625 155.851562 104.1875 162.183594 102.644531 L 168.792969 101.808594 C 181.582031 101.519531 189.441406 104.890625 195.347656 111.496094 C 197.050781 113.175781 198.308594 114.871094 200.835938 118.804688 C 194.082031 123.011719 194.082031 123.011719 184.390625 129.347656 C 182.273438 124.851562 178.902344 122.039062 175.246094 120.914062 C 169.625 119.226562 162.457031 121.046875 161.050781 127.097656 C 160.5 128.925781 160.628906 130.613281 161.484375 133.703125 C 163.757812 138.90625 171.425781 141.152344 178.320312 144.386719 C 198.136719 152.425781 204.820312 161.046875 206.457031 171.304688 L 206.027344 170.679688 C 207.582031 179.53125 205.605469 185.296875 205.335938 186.140625 C 198.015625 211.15625 157.257812 212 140.953125 195.546875 C 137.578125 191.609375 135.332031 189.652344 133.363281 185.15625 L 150.511719 175.308594 C 155.148438 182.335938 159.355469 186.140625 166.953125 187.824219 C 177.222656 189.089844 187.625 185.578125 185.375 174.613281 Z M 76.207031 177.867188 C 76.367188 177.867188 76.804688 178.71875 77.394531 179.703125 C 79.578125 183.347656 81.460938 185.875 85.171875 187.714844 C 88.789062 188.847656 96.753906 189.671875 99.847656 183.214844 C 101.730469 179.953125 101.140625 169.355469 101.140625 157.8125 C 101.140625 139.625 101.222656 121.578125 101.222656 103.421875 L 122.289062 103.421875 L 122.25 103.945312 C 122.25 123.339844 122.363281 142.597656 122.25 161.84375 C 122.296875 173.796875 123.308594 184.480469 118.53125 193.195312 C 115.222656 199.941406 108.898438 204.296875 101.5625 206.414062 C 90.289062 208.945312 79.523438 207.398438 71.511719 202.621094 C 66.132812 199.386719 61.964844 194.308594 59.105469 188.40625 Z M 76.207031 177.867188 " fill-opacity="1" fill-rule="nonzero"/></g></svg>