<svg xmlns="http://www.w3.org/2000/svg" xmlns:xlink="http://www.w3.org/1999/xlink" width="300" zoomAndPan="magnify" viewBox="0 0 224.87999 225" height="300" preserveAspectRatio="xMidYMid meet" version="1.0"><defs><clipPath id="id1"><path d="M 20 159 L 198 159 L 198 218.195312 L 20 218.195312 Z M 20 159 " clip-rule="nonzero"/></clipPath></defs><g clip-path="url(#id1)"><path fill="#ead003" d="M 110.765625 218.011719 C 107.199219 218.019531 103.640625 217.84375 100.089844 217.476562 C 96.539062 217.109375 93.019531 216.554688 89.53125 215.8125 C 86.039062 215.074219 82.597656 214.148438 79.207031 213.042969 C 75.8125 211.9375 72.488281 210.65625 69.230469 209.199219 C 65.976562 207.738281 62.804688 206.113281 59.722656 204.320312 C 56.636719 202.523438 53.65625 200.570312 50.78125 198.460938 C 47.902344 196.351562 45.144531 194.09375 42.507812 191.691406 C 39.871094 189.285156 37.367188 186.75 35 184.082031 C 34.804688 184.90625 34.480469 185.675781 34.027344 186.390625 C 33.574219 187.105469 33.011719 187.722656 32.347656 188.25 C 31.683594 188.773438 30.953125 189.175781 30.152344 189.453125 C 29.351562 189.730469 28.527344 189.867188 27.683594 189.863281 C 27.117188 189.855469 26.5625 189.792969 26.011719 189.671875 C 25.527344 189.5625 25.058594 189.40625 24.605469 189.203125 C 24.148438 188.996094 23.71875 188.75 23.316406 188.460938 C 22.910156 188.175781 22.539062 187.847656 22.195312 187.484375 C 21.855469 187.121094 21.554688 186.730469 21.292969 186.308594 C 21.03125 185.886719 20.8125 185.441406 20.636719 184.976562 C 20.460938 184.507812 20.335938 184.03125 20.253906 183.539062 C 20.175781 183.046875 20.144531 182.554688 20.164062 182.058594 C 20.179688 181.558594 20.246094 181.070312 20.363281 180.585938 L 24.03125 165.066406 C 24.191406 164.40625 24.441406 163.78125 24.785156 163.191406 C 24.902344 162.972656 25.03125 162.757812 25.171875 162.550781 C 25.238281 162.445312 25.3125 162.34375 25.394531 162.25 L 25.796875 161.789062 C 26.011719 161.539062 26.242188 161.304688 26.488281 161.085938 C 26.777344 160.839844 27.085938 160.617188 27.40625 160.417969 C 28.261719 159.886719 29.1875 159.539062 30.183594 159.382812 C 31.175781 159.222656 32.164062 159.257812 33.140625 159.496094 L 48.621094 163.183594 C 49.402344 163.371094 50.136719 163.675781 50.824219 164.097656 C 51.511719 164.519531 52.113281 165.039062 52.632812 165.65625 C 53.152344 166.269531 53.558594 166.953125 53.859375 167.699219 C 54.160156 168.449219 54.335938 169.222656 54.386719 170.027344 C 54.4375 170.832031 54.359375 171.625 54.15625 172.402344 C 53.953125 173.183594 53.632812 173.910156 53.195312 174.585938 C 52.757812 175.265625 52.226562 175.855469 51.597656 176.359375 C 50.972656 176.867188 50.28125 177.261719 49.527344 177.542969 C 50.667969 178.6875 51.839844 179.796875 53.042969 180.875 C 54.246094 181.953125 55.476562 182.996094 56.738281 184.003906 C 58 185.011719 59.289062 185.984375 60.605469 186.921875 C 61.921875 187.859375 63.261719 188.757812 64.628906 189.621094 C 65.996094 190.480469 67.386719 191.304688 68.796875 192.085938 C 70.210938 192.871094 71.644531 193.613281 73.097656 194.316406 C 74.550781 195.019531 76.023438 195.683594 77.515625 196.304688 C 79.007812 196.921875 80.515625 197.503906 82.039062 198.039062 C 83.5625 198.574219 85.101562 199.066406 86.652344 199.519531 C 88.203125 199.96875 89.765625 200.375 91.339844 200.738281 C 92.914062 201.101562 94.496094 201.417969 96.089844 201.691406 C 97.679688 201.96875 99.277344 202.195312 100.882812 202.382812 C 102.488281 202.566406 104.097656 202.703125 105.707031 202.800781 C 107.320312 202.894531 108.933594 202.941406 110.550781 202.945312 C 112.164062 202.949219 113.78125 202.910156 115.394531 202.824219 C 117.003906 202.738281 118.613281 202.605469 120.21875 202.429688 C 121.828125 202.253906 123.425781 202.03125 125.019531 201.765625 C 126.613281 201.5 128.195312 201.1875 129.773438 200.832031 C 131.347656 200.480469 132.914062 200.082031 134.464844 199.636719 C 136.019531 199.195312 137.558594 198.710938 139.085938 198.179688 C 140.613281 197.652344 142.121094 197.082031 143.617188 196.46875 C 145.113281 195.855469 146.585938 195.199219 148.046875 194.503906 C 149.503906 193.808594 150.941406 193.070312 152.355469 192.296875 C 153.773438 191.519531 155.167969 190.703125 156.535156 189.847656 C 157.90625 188.992188 159.253906 188.101562 160.574219 187.171875 C 161.894531 186.242188 163.1875 185.277344 164.457031 184.273438 C 165.722656 183.269531 166.960938 182.234375 168.167969 181.164062 C 169.375 180.089844 170.554688 178.984375 171.699219 177.847656 C 172.847656 176.710938 173.960938 175.542969 175.042969 174.34375 C 176.125 173.140625 177.171875 171.914062 178.183594 170.652344 C 179.195312 169.394531 180.171875 168.109375 181.113281 166.796875 C 182.050781 165.480469 182.957031 164.144531 183.820312 162.78125 C 184.089844 162.367188 184.394531 161.984375 184.738281 161.632812 C 185.078125 161.28125 185.453125 160.964844 185.859375 160.683594 C 186.261719 160.40625 186.691406 160.167969 187.140625 159.972656 C 187.59375 159.777344 188.058594 159.628906 188.539062 159.523438 C 189.019531 159.417969 189.507812 159.363281 189.996094 159.351562 C 190.488281 159.34375 190.976562 159.382812 191.460938 159.46875 C 191.945312 159.554688 192.417969 159.6875 192.875 159.867188 C 193.332031 160.046875 193.769531 160.265625 194.183594 160.53125 C 194.597656 160.792969 194.984375 161.097656 195.339844 161.433594 C 195.695312 161.773438 196.015625 162.144531 196.296875 162.546875 C 196.582031 162.949219 196.824219 163.375 197.023438 163.824219 C 197.222656 164.273438 197.378906 164.738281 197.488281 165.21875 C 197.59375 165.695312 197.65625 166.183594 197.671875 166.671875 C 197.683594 167.164062 197.652344 167.652344 197.570312 168.136719 C 197.488281 168.625 197.359375 169.09375 197.1875 169.554688 C 197.011719 170.015625 196.796875 170.453125 196.535156 170.871094 C 194.257812 174.476562 191.765625 177.921875 189.054688 181.210938 C 186.34375 184.496094 183.433594 187.601562 180.332031 190.523438 C 177.226562 193.445312 173.949219 196.15625 170.503906 198.664062 C 167.058594 201.171875 163.464844 203.449219 159.730469 205.503906 C 155.996094 207.558594 152.144531 209.367188 148.183594 210.933594 C 144.21875 212.5 140.171875 213.808594 136.042969 214.863281 C 131.914062 215.917969 127.734375 216.710938 123.503906 217.234375 C 119.273438 217.761719 115.027344 218.019531 110.765625 218.011719 Z M 33.855469 177.046875 C 34.5625 177.046875 35.140625 177.324219 35.589844 177.871094 C 36.796875 179.351562 38.050781 180.796875 39.347656 182.207031 C 40.644531 183.613281 41.980469 184.980469 43.355469 186.308594 C 44.730469 187.636719 46.148438 188.925781 47.597656 190.171875 C 49.050781 191.414062 50.539062 192.617188 52.0625 193.773438 C 53.585938 194.929688 55.144531 196.042969 56.734375 197.105469 C 58.320312 198.171875 59.941406 199.1875 61.589844 200.160156 C 63.238281 201.128906 64.917969 202.046875 66.621094 202.917969 C 68.324219 203.789062 70.050781 204.609375 71.804688 205.375 C 73.554688 206.144531 75.328125 206.859375 77.125 207.523438 C 78.917969 208.1875 80.730469 208.796875 82.5625 209.351562 C 84.390625 209.910156 86.238281 210.410156 88.097656 210.855469 C 89.957031 211.304688 91.828125 211.695312 93.714844 212.03125 C 95.597656 212.367188 97.488281 212.648438 99.386719 212.875 C 101.289062 213.097656 103.191406 213.265625 105.101562 213.378906 C 107.011719 213.492188 108.925781 213.546875 110.835938 213.546875 C 112.75 213.546875 114.660156 213.488281 116.570312 213.375 C 118.480469 213.261719 120.386719 213.089844 122.285156 212.863281 C 124.1875 212.636719 126.078125 212.355469 127.960938 212.015625 C 129.84375 211.675781 131.714844 211.285156 133.574219 210.835938 C 135.433594 210.386719 137.277344 209.882812 139.109375 209.324219 C 140.9375 208.765625 142.75 208.15625 144.542969 207.492188 C 146.339844 206.824219 148.109375 206.109375 149.863281 205.339844 C 151.613281 204.566406 153.339844 203.746094 155.042969 202.875 C 156.746094 202.003906 158.421875 201.082031 160.070312 200.109375 C 161.71875 199.140625 163.335938 198.121094 164.925781 197.054688 C 166.515625 195.988281 168.070312 194.875 169.59375 193.714844 C 171.113281 192.558594 172.601562 191.355469 174.050781 190.109375 C 175.503906 188.863281 176.917969 187.574219 178.292969 186.246094 C 179.667969 184.914062 181.003906 183.542969 182.296875 182.136719 C 183.589844 180.726562 184.84375 179.28125 186.050781 177.796875 C 187.261719 176.316406 188.425781 174.796875 189.542969 173.246094 C 190.664062 171.695312 191.734375 170.113281 192.761719 168.496094 C 192.980469 168.152344 193.125 167.78125 193.195312 167.378906 C 193.269531 166.980469 193.261719 166.578125 193.171875 166.179688 C 193.085938 165.785156 192.925781 165.417969 192.691406 165.082031 C 192.457031 164.75 192.171875 164.472656 191.828125 164.253906 C 191.484375 164.035156 191.113281 163.886719 190.710938 163.816406 C 190.308594 163.746094 189.910156 163.753906 189.511719 163.839844 C 189.113281 163.929688 188.75 164.089844 188.414062 164.320312 C 188.082031 164.554688 187.804688 164.84375 187.585938 165.1875 C 186.644531 166.667969 185.664062 168.121094 184.640625 169.542969 C 183.617188 170.96875 182.550781 172.359375 181.449219 173.722656 C 180.34375 175.085938 179.203125 176.414062 178.019531 177.710938 C 176.839844 179.007812 175.621094 180.269531 174.367188 181.496094 C 173.113281 182.722656 171.824219 183.910156 170.503906 185.0625 C 169.179688 186.214844 167.824219 187.328125 166.4375 188.398438 C 165.050781 189.472656 163.636719 190.503906 162.1875 191.496094 C 160.742188 192.488281 159.265625 193.4375 157.765625 194.34375 C 156.265625 195.25 154.738281 196.109375 153.1875 196.925781 C 151.636719 197.746094 150.0625 198.519531 148.464844 199.246094 C 146.867188 199.972656 145.253906 200.652344 143.617188 201.285156 C 141.980469 201.917969 140.328125 202.503906 138.660156 203.039062 C 136.992188 203.578125 135.308594 204.066406 133.609375 204.507812 C 131.914062 204.949219 130.203125 205.339844 128.484375 205.679688 C 126.765625 206.023438 125.035156 206.3125 123.296875 206.554688 C 121.5625 206.796875 119.820312 206.988281 118.070312 207.128906 C 116.324219 207.269531 114.570312 207.359375 112.820312 207.398438 C 111.066406 207.4375 109.3125 207.425781 107.558594 207.363281 C 105.808594 207.304688 104.058594 207.191406 102.3125 207.027344 C 100.566406 206.863281 98.824219 206.652344 97.089844 206.386719 C 95.359375 206.125 93.632812 205.808594 91.917969 205.445312 C 90.203125 205.082031 88.496094 204.671875 86.804688 204.207031 C 85.113281 203.746094 83.4375 203.234375 81.773438 202.675781 C 80.113281 202.117188 78.46875 201.511719 76.839844 200.855469 C 75.214844 200.203125 73.605469 199.503906 72.019531 198.753906 C 70.433594 198.007812 68.871094 197.214844 67.328125 196.378906 C 65.789062 195.542969 64.273438 194.660156 62.78125 193.734375 C 61.292969 192.808594 59.832031 191.84375 58.398438 190.832031 C 56.964844 189.824219 55.558594 188.773438 54.1875 187.683594 C 52.8125 186.589844 51.472656 185.460938 50.164062 184.292969 C 48.855469 183.125 47.585938 181.917969 46.347656 180.675781 C 45.109375 179.433594 43.90625 178.160156 42.742188 176.847656 C 42.421875 176.480469 42.238281 176.058594 42.195312 175.574219 C 42.148438 175.085938 42.253906 174.636719 42.503906 174.21875 C 42.753906 173.800781 43.105469 173.5 43.554688 173.3125 C 44.003906 173.125 44.464844 173.085938 44.9375 173.199219 L 46.167969 173.496094 C 46.558594 173.578125 46.949219 173.585938 47.34375 173.515625 C 47.738281 173.445312 48.105469 173.300781 48.441406 173.089844 C 48.78125 172.875 49.066406 172.605469 49.296875 172.277344 C 49.53125 171.953125 49.691406 171.59375 49.785156 171.207031 C 49.878906 170.816406 49.894531 170.425781 49.832031 170.03125 C 49.769531 169.632812 49.636719 169.265625 49.429688 168.921875 C 49.226562 168.578125 48.960938 168.289062 48.640625 168.046875 C 48.320312 167.808594 47.96875 167.636719 47.582031 167.535156 L 32.089844 163.847656 C 31.269531 163.632812 30.5 163.753906 29.78125 164.207031 C 29.664062 164.277344 29.550781 164.359375 29.445312 164.445312 C 29.34375 164.535156 29.25 164.632812 29.160156 164.734375 L 28.875 165.0625 L 28.84375 165.105469 C 28.78125 165.199219 28.726562 165.292969 28.675781 165.394531 C 28.539062 165.621094 28.441406 165.859375 28.375 166.117188 L 24.714844 181.625 C 24.617188 182.019531 24.601562 182.417969 24.667969 182.820312 C 24.730469 183.222656 24.867188 183.597656 25.082031 183.941406 C 25.292969 184.289062 25.5625 184.582031 25.894531 184.820312 C 26.222656 185.058594 26.582031 185.226562 26.980469 185.320312 C 27.214844 185.371094 27.449219 185.398438 27.691406 185.40625 C 28.035156 185.40625 28.371094 185.34375 28.695312 185.230469 C 29.019531 185.117188 29.316406 184.949219 29.585938 184.734375 C 29.859375 184.519531 30.085938 184.269531 30.269531 183.976562 C 30.457031 183.6875 30.589844 183.375 30.667969 183.039062 L 31.6875 178.769531 C 31.746094 178.527344 31.839844 178.300781 31.976562 178.089844 C 32.109375 177.875 32.277344 177.691406 32.472656 177.539062 C 32.671875 177.382812 32.886719 177.261719 33.125 177.179688 C 33.363281 177.097656 33.605469 177.058594 33.855469 177.058594 Z M 194.648438 169.683594 Z M 194.648438 169.683594 " fill-opacity="1" fill-rule="nonzero"/></g><path fill="#ead003" d="M 202.402344 145.332031 C 201.796875 145.335938 201.203125 145.261719 200.617188 145.109375 C 199.652344 144.882812 198.765625 144.476562 197.964844 143.894531 C 197.160156 143.308594 196.503906 142.59375 195.988281 141.742188 L 187.640625 128.179688 C 187.210938 127.488281 186.90625 126.746094 186.71875 125.957031 C 186.53125 125.164062 186.476562 124.363281 186.550781 123.554688 C 186.625 122.742188 186.824219 121.964844 187.148438 121.222656 C 187.472656 120.476562 187.910156 119.800781 188.453125 119.199219 C 189 118.59375 189.625 118.089844 190.332031 117.691406 C 191.042969 117.289062 191.792969 117.011719 192.59375 116.855469 C 193.390625 116.699219 194.191406 116.675781 195 116.777344 C 195.804688 116.882812 196.574219 117.113281 197.308594 117.464844 C 197.308594 117.113281 197.308594 116.765625 197.308594 116.421875 C 197.316406 113.890625 197.210938 111.363281 196.996094 108.84375 C 196.78125 106.320312 196.457031 103.816406 196.023438 101.320312 C 195.585938 98.828125 195.042969 96.359375 194.390625 93.914062 C 193.738281 91.46875 192.980469 89.058594 192.113281 86.679688 C 191.25 84.300781 190.28125 81.964844 189.210938 79.671875 C 188.140625 77.378906 186.96875 75.136719 185.703125 72.949219 C 184.433594 70.757812 183.070312 68.628906 181.617188 66.558594 C 180.160156 64.488281 178.617188 62.484375 176.984375 60.550781 C 175.351562 58.617188 173.636719 56.757812 171.84375 54.976562 C 170.046875 53.191406 168.175781 51.492188 166.230469 49.871094 C 164.285156 48.253906 162.269531 46.722656 160.191406 45.285156 C 158.109375 43.84375 155.972656 42.496094 153.773438 41.242188 C 151.574219 39.988281 149.324219 38.835938 147.023438 37.78125 C 144.722656 36.726562 142.378906 35.773438 139.996094 34.925781 C 137.613281 34.078125 135.195312 33.335938 132.746094 32.703125 C 130.296875 32.066406 127.824219 31.539062 125.328125 31.121094 C 124.839844 31.039062 124.363281 30.910156 123.902344 30.734375 C 123.4375 30.558594 122.996094 30.339844 122.578125 30.078125 C 122.160156 29.816406 121.769531 29.515625 121.410156 29.175781 C 121.050781 28.839844 120.726562 28.46875 120.4375 28.0625 C 120.152344 27.660156 119.90625 27.234375 119.703125 26.78125 C 119.503906 26.332031 119.34375 25.863281 119.234375 25.382812 C 119.125 24.902344 119.0625 24.414062 119.046875 23.917969 C 119.035156 23.421875 119.066406 22.933594 119.148438 22.445312 C 119.234375 21.957031 119.363281 21.484375 119.539062 21.023438 C 119.71875 20.5625 119.9375 20.121094 120.199219 19.703125 C 120.464844 19.285156 120.765625 18.894531 121.105469 18.535156 C 121.445312 18.175781 121.8125 17.855469 122.21875 17.566406 C 122.621094 17.28125 123.046875 17.035156 123.496094 16.832031 C 123.949219 16.628906 124.414062 16.472656 124.894531 16.363281 C 125.375 16.25 125.863281 16.1875 126.359375 16.171875 C 126.851562 16.15625 127.34375 16.1875 127.832031 16.269531 C 130.761719 16.757812 133.664062 17.375 136.542969 18.121094 C 139.417969 18.867188 142.253906 19.738281 145.054688 20.734375 C 147.855469 21.730469 150.605469 22.847656 153.308594 24.085938 C 156.007812 25.324219 158.648438 26.675781 161.230469 28.148438 C 163.8125 29.617188 166.328125 31.199219 168.769531 32.890625 C 171.210938 34.582031 173.574219 36.378906 175.859375 38.277344 C 178.144531 40.179688 180.34375 42.175781 182.449219 44.269531 C 184.558594 46.359375 186.574219 48.542969 188.488281 50.8125 C 190.40625 53.082031 192.21875 55.433594 193.929688 57.863281 C 195.640625 60.292969 197.238281 62.792969 198.730469 65.367188 C 200.21875 67.9375 201.59375 70.566406 202.851562 73.261719 C 204.109375 75.953125 205.246094 78.695312 206.261719 81.484375 C 207.28125 84.277344 208.171875 87.109375 208.9375 89.980469 C 209.707031 92.851562 210.347656 95.75 210.859375 98.675781 C 211.371094 101.605469 211.753906 104.546875 212.003906 107.507812 C 212.257812 110.46875 212.378906 113.433594 212.371094 116.40625 C 212.371094 118.601562 212.304688 120.785156 212.164062 122.929688 C 212.585938 122.683594 213.027344 122.480469 213.492188 122.320312 C 213.957031 122.160156 214.429688 122.042969 214.914062 121.976562 C 215.402344 121.910156 215.886719 121.890625 216.378906 121.917969 C 216.867188 121.945312 217.347656 122.019531 217.824219 122.140625 C 218.296875 122.261719 218.757812 122.429688 219.199219 122.640625 C 219.640625 122.851562 220.058594 123.105469 220.453125 123.398438 C 220.84375 123.691406 221.207031 124.019531 221.535156 124.382812 C 221.863281 124.746094 222.15625 125.136719 222.40625 125.554688 C 222.660156 125.976562 222.867188 126.417969 223.035156 126.878906 C 223.203125 127.339844 223.320312 127.8125 223.394531 128.296875 C 223.46875 128.78125 223.496094 129.269531 223.476562 129.757812 C 223.453125 130.246094 223.386719 130.730469 223.269531 131.207031 C 223.15625 131.683594 222.996094 132.144531 222.789062 132.589844 C 222.585938 133.035156 222.335938 133.453125 222.050781 133.851562 C 221.761719 134.25 221.4375 134.613281 221.082031 134.949219 C 220.722656 135.28125 220.332031 135.578125 219.917969 135.835938 L 206.355469 144.207031 C 205.140625 144.949219 203.824219 145.324219 202.402344 145.332031 Z M 194.027344 121.175781 C 193.472656 121.171875 192.957031 121.3125 192.476562 121.59375 C 192 121.871094 191.625 122.253906 191.355469 122.738281 C 191.085938 123.222656 190.960938 123.742188 190.972656 124.296875 C 190.988281 124.847656 191.140625 125.359375 191.433594 125.832031 L 199.789062 139.398438 C 200.003906 139.746094 200.277344 140.039062 200.609375 140.277344 C 200.941406 140.515625 201.304688 140.679688 201.703125 140.773438 C 202.101562 140.867188 202.503906 140.878906 202.90625 140.8125 C 203.308594 140.75 203.683594 140.609375 204.03125 140.394531 L 217.570312 132.035156 C 218.089844 131.707031 218.472656 131.261719 218.726562 130.703125 C 218.980469 130.140625 219.058594 129.558594 218.960938 128.953125 C 218.863281 128.34375 218.605469 127.816406 218.191406 127.363281 C 217.777344 126.90625 217.273438 126.605469 216.675781 126.457031 C 215.84375 126.257812 215.066406 126.382812 214.339844 126.839844 L 210.710938 129.070312 C 210.34375 129.296875 209.949219 129.40625 209.523438 129.402344 C 209.09375 129.398438 208.703125 129.285156 208.339844 129.054688 C 207.980469 128.824219 207.707031 128.519531 207.523438 128.132812 C 207.339844 127.746094 207.273438 127.34375 207.320312 126.917969 C 207.710938 123.429688 207.90625 119.933594 207.902344 116.425781 C 207.910156 113.585938 207.792969 110.75 207.550781 107.917969 C 207.3125 105.085938 206.945312 102.273438 206.457031 99.472656 C 205.96875 96.675781 205.359375 93.902344 204.625 91.160156 C 203.890625 88.414062 203.039062 85.707031 202.066406 83.035156 C 201.097656 80.367188 200.007812 77.746094 198.808594 75.171875 C 197.605469 72.597656 196.292969 70.082031 194.867188 67.621094 C 193.445312 65.164062 191.914062 62.773438 190.28125 60.449219 C 188.644531 58.125 186.910156 55.878906 185.078125 53.707031 C 183.246094 51.535156 181.324219 49.449219 179.308594 47.449219 C 177.289062 45.445312 175.191406 43.535156 173.007812 41.71875 C 170.820312 39.902344 168.5625 38.1875 166.226562 36.566406 C 163.890625 34.949219 161.488281 33.4375 159.019531 32.03125 C 156.550781 30.625 154.027344 29.332031 151.441406 28.148438 C 148.859375 26.964844 146.230469 25.894531 143.554688 24.945312 C 140.878906 23.992188 138.164062 23.160156 135.414062 22.445312 C 132.664062 21.734375 129.886719 21.140625 127.085938 20.671875 C 126.683594 20.605469 126.285156 20.617188 125.890625 20.707031 C 125.492188 20.800781 125.128906 20.960938 124.800781 21.199219 C 124.46875 21.433594 124.195312 21.722656 123.980469 22.066406 C 123.761719 22.414062 123.621094 22.785156 123.554688 23.1875 C 123.488281 23.585938 123.5 23.984375 123.589844 24.382812 C 123.679688 24.777344 123.84375 25.140625 124.078125 25.472656 C 124.316406 25.804688 124.605469 26.078125 124.949219 26.292969 C 125.292969 26.507812 125.667969 26.648438 126.066406 26.71875 C 128.691406 27.15625 131.292969 27.710938 133.867188 28.378906 C 136.445312 29.046875 138.984375 29.824219 141.492188 30.71875 C 144 31.609375 146.464844 32.609375 148.882812 33.71875 C 151.304688 34.828125 153.667969 36.039062 155.980469 37.359375 C 158.292969 38.675781 160.542969 40.089844 162.730469 41.605469 C 164.917969 43.121094 167.035156 44.730469 169.082031 46.429688 C 171.128906 48.132812 173.097656 49.921875 174.984375 51.796875 C 176.875 53.671875 178.675781 55.625 180.390625 57.660156 C 182.109375 59.691406 183.734375 61.796875 185.265625 63.972656 C 186.796875 66.152344 188.226562 68.390625 189.5625 70.691406 C 190.894531 72.996094 192.125 75.351562 193.253906 77.761719 C 194.378906 80.175781 195.398438 82.628906 196.308594 85.132812 C 197.21875 87.632812 198.015625 90.167969 198.703125 92.738281 C 199.390625 95.308594 199.964844 97.90625 200.421875 100.527344 C 200.878906 103.148438 201.222656 105.785156 201.449219 108.4375 C 201.675781 111.089844 201.785156 113.746094 201.777344 116.40625 C 201.777344 118.453125 201.695312 120.617188 201.539062 122.835938 C 201.503906 123.320312 201.328125 123.746094 201.019531 124.113281 C 200.707031 124.484375 200.316406 124.726562 199.847656 124.84375 C 199.378906 124.960938 198.917969 124.925781 198.472656 124.746094 C 198.023438 124.5625 197.671875 124.265625 197.417969 123.855469 L 196.652344 122.628906 C 196.371094 122.175781 195.996094 121.820312 195.527344 121.5625 C 195.0625 121.300781 194.558594 121.171875 194.027344 121.175781 Z M 194.027344 121.175781 " fill-opacity="1" fill-rule="nonzero"/><path fill="#ead003" d="M 19.148438 145.25 C 18.296875 145.25 17.472656 145.113281 16.671875 144.832031 C 15.867188 144.554688 15.132812 144.148438 14.46875 143.621094 C 13.804688 143.09375 13.242188 142.46875 12.789062 141.75 C 12.335938 141.03125 12.015625 140.257812 11.824219 139.429688 C 11.476562 137.929688 11.164062 136.417969 10.882812 134.902344 C 10.605469 133.386719 10.359375 131.863281 10.148438 130.335938 C 9.941406 128.808594 9.765625 127.277344 9.625 125.742188 C 9.484375 124.207031 9.378906 122.667969 9.308594 121.128906 C 9.238281 119.589844 9.203125 118.046875 9.203125 116.507812 C 9.203125 114.964844 9.234375 113.421875 9.304688 111.882812 C 9.375 110.34375 9.480469 108.804688 9.621094 107.269531 C 9.757812 105.734375 9.933594 104.203125 10.144531 102.675781 C 10.351562 101.148438 10.597656 99.625 10.875 98.109375 C 11.152344 96.589844 11.464844 95.082031 11.8125 93.578125 C 12.160156 92.078125 12.542969 90.582031 12.957031 89.097656 C 13.371094 87.613281 13.820312 86.140625 14.300781 84.675781 C 14.785156 83.210938 15.296875 81.757812 15.847656 80.316406 C 16.394531 78.875 16.976562 77.445312 17.589844 76.03125 C 18.203125 74.617188 18.847656 73.21875 19.523438 71.832031 C 20.199219 70.445312 20.90625 69.078125 21.648438 67.722656 C 22.386719 66.371094 23.15625 65.035156 23.953125 63.714844 C 24.753906 62.398438 25.582031 61.097656 26.441406 59.816406 C 27.300781 58.539062 28.1875 57.277344 29.105469 56.035156 C 30.019531 54.796875 30.964844 53.578125 31.9375 52.378906 C 32.90625 51.183594 33.90625 50.007812 34.929688 48.855469 C 35.957031 47.703125 37.007812 46.578125 38.082031 45.472656 C 39.160156 44.367188 40.257812 43.289062 41.386719 42.234375 C 42.511719 41.179688 43.660156 40.152344 44.832031 39.152344 C 46.003906 38.148438 47.195312 37.175781 48.414062 36.226562 C 49.628906 35.28125 50.867188 34.359375 52.125 33.46875 C 53.382812 32.578125 54.660156 31.714844 55.957031 30.882812 C 57.257812 30.046875 58.570312 29.246094 59.90625 28.472656 C 61.238281 27.699219 62.589844 26.957031 63.957031 26.242188 C 65.324219 25.53125 66.707031 24.851562 68.105469 24.203125 C 69.503906 23.554688 70.917969 22.9375 72.34375 22.351562 C 73.773438 21.765625 75.210938 21.214844 76.664062 20.695312 C 76.324219 20.378906 76.015625 20.03125 75.738281 19.660156 C 75.460938 19.285156 75.222656 18.890625 75.019531 18.472656 C 74.816406 18.054688 74.652344 17.621094 74.53125 17.171875 C 74.40625 16.722656 74.328125 16.265625 74.289062 15.804688 C 74.25 15.339844 74.257812 14.878906 74.304688 14.414062 C 74.351562 13.953125 74.441406 13.5 74.574219 13.054688 C 74.703125 12.605469 74.875 12.175781 75.085938 11.761719 C 75.296875 11.347656 75.546875 10.957031 75.828125 10.589844 C 76.113281 10.222656 76.429688 9.882812 76.777344 9.574219 C 77.121094 9.261719 77.496094 8.988281 77.890625 8.746094 C 78.289062 8.507812 78.707031 8.304688 79.140625 8.140625 C 79.578125 7.976562 80.023438 7.855469 80.480469 7.773438 C 80.9375 7.691406 81.398438 7.65625 81.863281 7.660156 C 82.328125 7.664062 82.789062 7.710938 83.246094 7.800781 C 83.703125 7.890625 84.144531 8.019531 84.578125 8.195312 C 85.007812 8.367188 85.421875 8.574219 85.816406 8.824219 L 99.273438 17.347656 C 100.125 17.882812 100.835938 18.5625 101.410156 19.382812 C 101.988281 20.207031 102.382812 21.105469 102.59375 22.089844 C 102.816406 23.0625 102.84375 24.039062 102.667969 25.023438 C 102.492188 26.007812 102.132812 26.917969 101.589844 27.753906 L 93.078125 41.199219 C 92.84375 41.566406 92.582031 41.910156 92.289062 42.234375 C 92 42.554688 91.679688 42.847656 91.335938 43.117188 C 90.992188 43.382812 90.628906 43.617188 90.246094 43.820312 C 89.863281 44.023438 89.464844 44.195312 89.050781 44.328125 C 88.636719 44.464844 88.214844 44.5625 87.785156 44.621094 C 87.355469 44.683594 86.921875 44.707031 86.488281 44.695312 C 86.054688 44.683594 85.625 44.632812 85.199219 44.542969 C 84.773438 44.457031 84.355469 44.332031 83.953125 44.171875 C 83.546875 44.011719 83.160156 43.820312 82.789062 43.59375 C 82.417969 43.367188 82.070312 43.109375 81.742188 42.824219 C 81.417969 42.535156 81.117188 42.222656 80.84375 41.882812 C 80.574219 41.546875 80.332031 41.1875 80.121094 40.804688 C 79.914062 40.425781 79.738281 40.027344 79.59375 39.617188 C 79.453125 39.207031 79.347656 38.785156 79.28125 38.355469 C 79.210938 37.929688 79.179688 37.496094 79.1875 37.0625 C 79.191406 36.625 79.234375 36.195312 79.316406 35.769531 C 76.917969 36.707031 74.570312 37.753906 72.265625 38.902344 C 69.960938 40.050781 67.714844 41.300781 65.519531 42.652344 C 63.328125 44 61.199219 45.445312 59.136719 46.984375 C 57.070312 48.523438 55.082031 50.152344 53.160156 51.867188 C 51.242188 53.582031 49.402344 55.382812 47.644531 57.261719 C 45.886719 59.140625 44.214844 61.097656 42.628906 63.125 C 41.046875 65.15625 39.554688 67.25 38.15625 69.414062 C 36.757812 71.574219 35.460938 73.796875 34.261719 76.074219 C 33.058594 78.351562 31.964844 80.675781 30.96875 83.054688 C 29.976562 85.429688 29.09375 87.84375 28.316406 90.296875 C 27.539062 92.753906 26.871094 95.234375 26.3125 97.75 C 25.757812 100.261719 25.3125 102.796875 24.984375 105.351562 C 24.652344 107.902344 24.4375 110.464844 24.332031 113.039062 C 24.230469 115.613281 24.242188 118.183594 24.371094 120.753906 C 24.496094 123.328125 24.738281 125.886719 25.09375 128.4375 C 25.445312 130.988281 25.914062 133.515625 26.496094 136.023438 C 26.605469 136.507812 26.671875 136.996094 26.6875 137.488281 C 26.703125 137.984375 26.667969 138.476562 26.589844 138.964844 C 26.507812 139.449219 26.378906 139.925781 26.203125 140.390625 C 26.03125 140.851562 25.8125 141.292969 25.550781 141.714844 C 25.289062 142.132812 24.988281 142.523438 24.648438 142.882812 C 24.3125 143.246094 23.941406 143.570312 23.539062 143.855469 C 23.136719 144.144531 22.707031 144.390625 22.257812 144.59375 C 21.804688 144.796875 21.339844 144.953125 20.859375 145.066406 L 20.808594 145.066406 C 20.261719 145.183594 19.707031 145.242188 19.148438 145.25 Z M 20.363281 142.890625 Z M 81.785156 12.121094 C 81.449219 12.121094 81.128906 12.171875 80.8125 12.277344 C 80.496094 12.382812 80.207031 12.535156 79.941406 12.734375 C 79.675781 12.933594 79.449219 13.167969 79.257812 13.441406 C 79.070312 13.714844 78.929688 14.011719 78.839844 14.332031 C 78.746094 14.648438 78.707031 14.976562 78.722656 15.308594 C 78.738281 15.640625 78.804688 15.960938 78.921875 16.269531 C 79.039062 16.582031 79.207031 16.863281 79.417969 17.121094 C 79.628906 17.375 79.875 17.59375 80.15625 17.769531 L 82.894531 19.511719 C 83.261719 19.746094 83.539062 20.0625 83.71875 20.457031 C 83.902344 20.851562 83.964844 21.265625 83.90625 21.699219 C 83.847656 22.128906 83.675781 22.511719 83.394531 22.84375 C 83.109375 23.175781 82.761719 23.402344 82.34375 23.53125 C 80.890625 23.976562 79.449219 24.457031 78.019531 24.96875 C 76.589844 25.484375 75.171875 26.03125 73.765625 26.613281 C 72.363281 27.191406 70.972656 27.804688 69.59375 28.453125 C 68.21875 29.097656 66.859375 29.773438 65.515625 30.484375 C 64.171875 31.191406 62.84375 31.933594 61.535156 32.707031 C 60.226562 33.476562 58.933594 34.277344 57.664062 35.109375 C 56.390625 35.941406 55.140625 36.804688 53.910156 37.695312 C 52.675781 38.585938 51.46875 39.503906 50.277344 40.453125 C 49.089844 41.402344 47.925781 42.375 46.78125 43.378906 C 45.640625 44.378906 44.519531 45.410156 43.425781 46.464844 C 42.332031 47.519531 41.261719 48.597656 40.21875 49.703125 C 39.175781 50.808594 38.160156 51.9375 37.167969 53.089844 C 36.175781 54.242188 35.214844 55.417969 34.277344 56.613281 C 33.34375 57.8125 32.433594 59.03125 31.554688 60.269531 C 30.679688 61.511719 29.828125 62.769531 29.007812 64.050781 C 28.191406 65.332031 27.402344 66.628906 26.640625 67.945312 C 25.882812 69.265625 25.15625 70.597656 24.460938 71.949219 C 23.765625 73.300781 23.101562 74.667969 22.46875 76.050781 C 21.835938 77.429688 21.238281 78.828125 20.671875 80.238281 C 20.105469 81.648438 19.570312 83.070312 19.070312 84.507812 C 18.570312 85.941406 18.105469 87.386719 17.675781 88.84375 C 17.242188 90.304688 16.84375 91.769531 16.480469 93.246094 C 16.117188 94.722656 15.789062 96.203125 15.496094 97.695312 C 15.203125 99.1875 14.945312 100.683594 14.722656 102.1875 C 14.5 103.691406 14.308594 105.199219 14.15625 106.710938 C 14.003906 108.222656 13.886719 109.738281 13.804688 111.257812 C 13.722656 112.773438 13.679688 114.292969 13.667969 115.8125 C 13.65625 117.332031 13.683594 118.851562 13.742188 120.371094 C 13.804688 121.886719 13.902344 123.40625 14.03125 124.917969 C 14.164062 126.433594 14.332031 127.945312 14.535156 129.449219 C 14.738281 130.957031 14.976562 132.457031 15.25 133.953125 C 15.523438 135.445312 15.828125 136.933594 16.171875 138.414062 C 16.269531 138.8125 16.4375 139.175781 16.675781 139.507812 C 16.914062 139.835938 17.210938 140.109375 17.558594 140.324219 C 17.902344 140.539062 18.277344 140.679688 18.683594 140.746094 C 19.085938 140.8125 19.484375 140.796875 19.882812 140.707031 C 20.695312 140.515625 21.324219 140.0625 21.761719 139.351562 C 22.210938 138.632812 22.339844 137.859375 22.148438 137.03125 C 21.828125 135.65625 21.542969 134.269531 21.289062 132.882812 C 21.035156 131.492188 20.8125 130.09375 20.625 128.695312 C 20.433594 127.292969 20.277344 125.890625 20.15625 124.480469 C 20.03125 123.074219 19.941406 121.664062 19.882812 120.253906 C 19.824219 118.839844 19.796875 117.429688 19.804688 116.015625 C 19.8125 114.601562 19.851562 113.1875 19.925781 111.777344 C 20 110.367188 20.105469 108.957031 20.246094 107.550781 C 20.382812 106.144531 20.554688 104.742188 20.757812 103.34375 C 20.960938 101.945312 21.199219 100.550781 21.46875 99.164062 C 21.734375 97.777344 22.035156 96.398438 22.371094 95.023438 C 22.703125 93.648438 23.066406 92.285156 23.464844 90.929688 C 23.859375 89.570312 24.289062 88.226562 24.746094 86.890625 C 25.207031 85.550781 25.695312 84.226562 26.214844 82.914062 C 26.738281 81.597656 27.289062 80.296875 27.871094 79.011719 C 28.449219 77.722656 29.0625 76.449219 29.703125 75.1875 C 30.34375 73.929688 31.011719 72.683594 31.710938 71.457031 C 32.410156 70.226562 33.136719 69.015625 33.890625 67.820312 C 34.644531 66.625 35.425781 65.449219 36.238281 64.289062 C 37.046875 63.132812 37.882812 61.992188 38.746094 60.875 C 39.609375 59.753906 40.496094 58.65625 41.410156 57.578125 C 42.324219 56.5 43.261719 55.441406 44.222656 54.40625 C 45.1875 53.375 46.171875 52.363281 47.183594 51.371094 C 48.191406 50.382812 49.226562 49.417969 50.28125 48.480469 C 51.335938 47.539062 52.410156 46.621094 53.507812 45.730469 C 54.605469 44.839844 55.722656 43.976562 56.859375 43.136719 C 57.996094 42.300781 59.152344 41.488281 60.328125 40.703125 C 61.503906 39.917969 62.695312 39.160156 63.90625 38.429688 C 65.117188 37.703125 66.34375 37 67.589844 36.328125 C 68.832031 35.65625 70.089844 35.011719 71.363281 34.398438 C 72.636719 33.785156 73.921875 33.203125 75.222656 32.648438 C 76.523438 32.09375 77.835938 31.570312 79.160156 31.078125 C 80.484375 30.585938 81.820312 30.125 83.164062 29.691406 C 83.613281 29.550781 84.058594 29.550781 84.507812 29.691406 C 84.953125 29.832031 85.320312 30.089844 85.605469 30.460938 C 85.894531 30.832031 86.046875 31.253906 86.066406 31.722656 C 86.085938 32.191406 85.972656 32.621094 85.722656 33.019531 L 84.132812 35.519531 C 83.675781 36.238281 83.539062 37.007812 83.722656 37.835938 C 83.902344 38.660156 84.347656 39.300781 85.0625 39.75 C 85.410156 39.960938 85.78125 40.097656 86.179688 40.164062 C 86.582031 40.230469 86.976562 40.21875 87.375 40.128906 C 87.769531 40.039062 88.132812 39.882812 88.464844 39.652344 C 88.800781 39.421875 89.078125 39.140625 89.304688 38.800781 L 97.820312 25.351562 C 98.28125 24.644531 98.417969 23.882812 98.226562 23.058594 C 98.046875 22.21875 97.59375 21.570312 96.867188 21.113281 L 83.429688 12.609375 C 82.925781 12.289062 82.378906 12.125 81.785156 12.121094 Z M 81.785156 12.121094 " fill-opacity="1" fill-rule="nonzero"/><path fill="#ead003" d="M 119.660156 178.460938 L 105.066406 178.460938 C 104.445312 178.460938 103.839844 178.355469 103.257812 178.144531 C 102.671875 177.933594 102.144531 177.632812 101.664062 177.234375 C 101.1875 176.839844 100.789062 176.375 100.472656 175.839844 C 100.160156 175.304688 99.945312 174.730469 99.828125 174.121094 L 97.285156 160.667969 C 97.226562 160.339844 97.039062 160.113281 96.726562 160 C 94.984375 159.390625 93.28125 158.683594 91.621094 157.878906 C 91.328125 157.746094 91.050781 157.773438 90.789062 157.957031 L 79.453125 165.691406 C 78.941406 166.039062 78.382812 166.289062 77.785156 166.445312 C 77.183594 166.601562 76.574219 166.648438 75.957031 166.589844 C 75.339844 166.535156 74.75 166.371094 74.191406 166.109375 C 73.628906 165.847656 73.128906 165.496094 72.6875 165.058594 L 62.375 154.734375 C 61.9375 154.292969 61.585938 153.792969 61.320312 153.230469 C 61.058594 152.671875 60.894531 152.082031 60.839844 151.464844 C 60.78125 150.84375 60.828125 150.234375 60.984375 149.636719 C 61.140625 149.035156 61.390625 148.476562 61.742188 147.964844 L 69.46875 136.628906 C 69.65625 136.367188 69.679688 136.089844 69.546875 135.796875 C 68.742188 134.136719 68.039062 132.4375 67.433594 130.691406 C 67.316406 130.378906 67.09375 130.191406 66.765625 130.128906 L 53.308594 127.582031 C 52.699219 127.46875 52.128906 127.253906 51.59375 126.9375 C 51.058594 126.621094 50.59375 126.226562 50.199219 125.75 C 49.804688 125.269531 49.5 124.742188 49.289062 124.15625 C 49.078125 123.574219 48.976562 122.972656 48.976562 122.351562 L 48.976562 107.769531 C 48.976562 107.148438 49.078125 106.546875 49.289062 105.960938 C 49.5 105.378906 49.804688 104.847656 50.199219 104.371094 C 50.597656 103.890625 51.0625 103.496094 51.59375 103.179688 C 52.128906 102.867188 52.703125 102.652344 53.3125 102.535156 L 66.765625 99.992188 C 67.097656 99.929688 67.320312 99.738281 67.4375 99.425781 C 68.042969 97.683594 68.746094 95.984375 69.554688 94.328125 C 69.6875 94.035156 69.65625 93.753906 69.46875 93.492188 L 61.738281 82.164062 C 61.390625 81.648438 61.136719 81.09375 60.984375 80.492188 C 60.828125 79.890625 60.78125 79.28125 60.835938 78.664062 C 60.894531 78.046875 61.054688 77.457031 61.320312 76.898438 C 61.582031 76.335938 61.933594 75.835938 62.371094 75.398438 L 72.6875 65.078125 C 73.128906 64.640625 73.628906 64.289062 74.1875 64.023438 C 74.75 63.761719 75.339844 63.601562 75.957031 63.542969 C 76.574219 63.484375 77.183594 63.53125 77.785156 63.6875 C 78.386719 63.839844 78.941406 64.09375 79.457031 64.445312 L 90.789062 72.175781 C 91.054688 72.363281 91.332031 72.390625 91.625 72.25 C 93.285156 71.449219 94.984375 70.746094 96.722656 70.136719 C 97.039062 70.019531 97.226562 69.796875 97.289062 69.46875 L 99.828125 56.003906 C 99.945312 55.394531 100.160156 54.824219 100.476562 54.289062 C 100.792969 53.753906 101.1875 53.289062 101.667969 52.894531 C 102.144531 52.5 102.675781 52.199219 103.257812 51.988281 C 103.84375 51.777344 104.445312 51.671875 105.066406 51.671875 L 119.660156 51.671875 C 120.277344 51.671875 120.878906 51.777344 121.464844 51.988281 C 122.046875 52.199219 122.578125 52.503906 123.054688 52.898438 C 123.53125 53.292969 123.929688 53.757812 124.246094 54.292969 C 124.558594 54.824219 124.773438 55.398438 124.890625 56.003906 L 127.433594 69.464844 C 127.492188 69.792969 127.679688 70.015625 127.992188 70.132812 C 129.734375 70.742188 131.433594 71.445312 133.09375 72.25 C 133.386719 72.386719 133.664062 72.363281 133.929688 72.171875 L 145.261719 64.441406 C 145.773438 64.089844 146.332031 63.839844 146.933594 63.683594 C 147.535156 63.53125 148.144531 63.480469 148.761719 63.539062 C 149.378906 63.597656 149.96875 63.761719 150.53125 64.023438 C 151.089844 64.289062 151.589844 64.640625 152.03125 65.078125 L 162.347656 75.394531 C 162.785156 75.832031 163.136719 76.332031 163.402344 76.894531 C 163.664062 77.457031 163.824219 78.046875 163.882812 78.664062 C 163.941406 79.28125 163.890625 79.890625 163.734375 80.492188 C 163.582031 81.089844 163.328125 81.648438 162.980469 82.160156 L 155.246094 93.492188 C 155.0625 93.757812 155.039062 94.035156 155.171875 94.328125 C 155.976562 95.984375 156.679688 97.683594 157.285156 99.425781 C 157.402344 99.738281 157.625 99.925781 157.953125 99.988281 L 171.410156 102.535156 C 172.019531 102.648438 172.589844 102.863281 173.125 103.179688 C 173.660156 103.496094 174.125 103.890625 174.523438 104.367188 C 174.917969 104.847656 175.21875 105.375 175.429688 105.960938 C 175.640625 106.542969 175.746094 107.144531 175.746094 107.765625 L 175.746094 122.359375 C 175.746094 122.980469 175.640625 123.582031 175.429688 124.164062 C 175.21875 124.75 174.917969 125.28125 174.519531 125.757812 C 174.125 126.234375 173.660156 126.628906 173.125 126.945312 C 172.589844 127.261719 172.015625 127.476562 171.40625 127.589844 L 157.953125 130.132812 C 157.625 130.195312 157.402344 130.386719 157.285156 130.703125 C 156.679688 132.441406 155.976562 134.140625 155.171875 135.796875 C 155.035156 136.089844 155.0625 136.367188 155.25 136.628906 L 162.980469 147.960938 C 163.328125 148.476562 163.582031 149.03125 163.738281 149.632812 C 163.890625 150.234375 163.941406 150.84375 163.882812 151.460938 C 163.824219 152.078125 163.664062 152.667969 163.402344 153.230469 C 163.136719 153.792969 162.785156 154.292969 162.347656 154.730469 L 152.027344 165.046875 C 151.589844 165.484375 151.089844 165.835938 150.527344 166.097656 C 149.964844 166.363281 149.378906 166.523438 148.761719 166.582031 C 148.144531 166.640625 147.535156 166.589844 146.933594 166.4375 C 146.332031 166.28125 145.777344 166.03125 145.265625 165.679688 L 133.929688 157.949219 C 133.664062 157.761719 133.386719 157.738281 133.09375 157.875 C 131.4375 158.675781 129.738281 159.382812 128 159.988281 C 127.683594 160.101562 127.496094 160.324219 127.4375 160.65625 L 124.890625 174.113281 C 124.777344 174.726562 124.5625 175.296875 124.246094 175.832031 C 123.929688 176.367188 123.535156 176.832031 123.058594 177.230469 C 122.582031 177.628906 122.050781 177.929688 121.464844 178.140625 C 120.882812 178.355469 120.28125 178.460938 119.660156 178.460938 Z M 91.289062 153.335938 C 92.089844 153.335938 92.851562 153.507812 93.574219 153.855469 C 95.078125 154.585938 96.617188 155.222656 98.195312 155.773438 C 99.097656 156.089844 99.859375 156.613281 100.480469 157.339844 C 101.101562 158.066406 101.5 158.898438 101.675781 159.839844 L 104.21875 173.292969 C 104.257812 173.496094 104.355469 173.664062 104.515625 173.796875 C 104.675781 173.929688 104.859375 173.996094 105.066406 173.996094 L 119.660156 173.996094 C 119.867188 173.996094 120.050781 173.929688 120.207031 173.796875 C 120.367188 173.664062 120.464844 173.496094 120.503906 173.292969 L 123.042969 159.839844 C 123.21875 158.898438 123.617188 158.066406 124.238281 157.339844 C 124.863281 156.613281 125.625 156.089844 126.527344 155.769531 C 128.101562 155.222656 129.636719 154.585938 131.136719 153.859375 C 131.992188 153.449219 132.894531 153.277344 133.839844 153.351562 C 134.789062 153.421875 135.652344 153.726562 136.4375 154.265625 L 147.769531 161.996094 C 147.941406 162.113281 148.128906 162.160156 148.332031 162.140625 C 148.539062 162.121094 148.714844 162.039062 148.863281 161.894531 L 159.183594 151.578125 C 159.328125 151.429688 159.410156 151.253906 159.429688 151.046875 C 159.449219 150.84375 159.402344 150.652344 159.285156 150.484375 L 151.550781 139.144531 C 151.015625 138.363281 150.710938 137.496094 150.640625 136.550781 C 150.566406 135.605469 150.734375 134.703125 151.144531 133.847656 C 151.875 132.347656 152.515625 130.8125 153.0625 129.238281 C 153.378906 128.335938 153.902344 127.570312 154.625 126.949219 C 155.351562 126.328125 156.1875 125.925781 157.125 125.75 L 170.589844 123.207031 C 170.792969 123.167969 170.957031 123.070312 171.089844 122.910156 C 171.222656 122.75 171.289062 122.570312 171.289062 122.363281 L 171.289062 107.769531 C 171.289062 107.5625 171.222656 107.378906 171.09375 107.21875 C 170.960938 107.058594 170.792969 106.960938 170.589844 106.921875 L 157.132812 104.378906 C 156.191406 104.199219 155.359375 103.800781 154.632812 103.179688 C 153.90625 102.558594 153.386719 101.792969 153.066406 100.894531 C 152.519531 99.316406 151.882812 97.78125 151.152344 96.28125 C 150.742188 95.425781 150.574219 94.523438 150.644531 93.578125 C 150.71875 92.632812 151.019531 91.769531 151.554688 90.984375 L 159.289062 79.648438 C 159.40625 79.476562 159.453125 79.289062 159.4375 79.082031 C 159.417969 78.875 159.335938 78.699219 159.1875 78.554688 L 148.871094 68.234375 C 148.722656 68.089844 148.546875 68.007812 148.339844 67.988281 C 148.136719 67.96875 147.945312 68.015625 147.773438 68.132812 L 136.4375 75.867188 C 135.652344 76.398438 134.785156 76.703125 133.839844 76.773438 C 132.890625 76.847656 131.992188 76.675781 131.132812 76.265625 C 129.632812 75.539062 128.09375 74.902344 126.519531 74.355469 C 125.617188 74.035156 124.855469 73.511719 124.234375 72.785156 C 123.613281 72.058594 123.214844 71.226562 123.042969 70.285156 L 120.5 56.832031 C 120.460938 56.628906 120.363281 56.460938 120.203125 56.332031 C 120.042969 56.199219 119.859375 56.132812 119.65625 56.132812 L 105.066406 56.132812 C 104.859375 56.132812 104.675781 56.199219 104.515625 56.332031 C 104.355469 56.464844 104.257812 56.628906 104.21875 56.832031 L 101.675781 70.289062 C 101.5 71.230469 101.101562 72.0625 100.476562 72.789062 C 99.855469 73.515625 99.09375 74.039062 98.191406 74.355469 C 96.613281 74.902344 95.078125 75.542969 93.574219 76.265625 C 92.71875 76.679688 91.820312 76.851562 90.871094 76.777344 C 89.925781 76.707031 89.058594 76.402344 88.277344 75.867188 L 76.941406 68.132812 C 76.769531 68.015625 76.582031 67.96875 76.375 67.988281 C 76.171875 68.007812 75.992188 68.089844 75.847656 68.234375 L 65.53125 78.554688 C 65.386719 78.699219 65.300781 78.875 65.28125 79.082031 C 65.261719 79.289062 65.3125 79.476562 65.429688 79.648438 L 73.160156 90.980469 C 73.695312 91.761719 74 92.628906 74.074219 93.574219 C 74.144531 94.519531 73.976562 95.421875 73.566406 96.277344 C 72.835938 97.777344 72.199219 99.316406 71.652344 100.894531 C 71.332031 101.792969 70.8125 102.554688 70.085938 103.179688 C 69.359375 103.800781 68.527344 104.199219 67.589844 104.378906 L 54.132812 106.921875 C 53.925781 106.960938 53.761719 107.058594 53.628906 107.21875 C 53.496094 107.378906 53.429688 107.5625 53.429688 107.769531 L 53.429688 122.363281 C 53.429688 122.566406 53.496094 122.75 53.628906 122.910156 C 53.757812 123.070312 53.925781 123.167969 54.128906 123.207031 L 67.585938 125.75 C 68.527344 125.925781 69.359375 126.324219 70.085938 126.949219 C 70.8125 127.570312 71.332031 128.332031 71.652344 129.234375 C 72.199219 130.808594 72.835938 132.347656 73.566406 133.847656 C 73.976562 134.703125 74.144531 135.605469 74.074219 136.550781 C 74 137.496094 73.695312 138.363281 73.160156 139.144531 L 65.429688 150.480469 C 65.3125 150.652344 65.261719 150.839844 65.28125 151.046875 C 65.300781 151.253906 65.386719 151.429688 65.53125 151.578125 L 75.847656 161.894531 C 75.996094 162.039062 76.171875 162.121094 76.375 162.140625 C 76.582031 162.160156 76.769531 162.113281 76.941406 161.996094 L 88.277344 154.265625 C 89.183594 153.644531 90.1875 153.335938 91.289062 153.335938 Z M 69.542969 100.160156 Z M 69.542969 100.160156 " fill-opacity="1" fill-rule="nonzero"/><path fill="#ead003" d="M 112.359375 143.109375 C 111.441406 143.109375 110.523438 143.0625 109.609375 142.972656 C 108.695312 142.882812 107.789062 142.75 106.890625 142.570312 C 105.988281 142.390625 105.097656 142.167969 104.21875 141.898438 C 103.339844 141.632812 102.476562 141.324219 101.628906 140.972656 C 100.78125 140.621094 99.949219 140.230469 99.140625 139.796875 C 98.332031 139.363281 97.542969 138.890625 96.78125 138.382812 C 96.015625 137.871094 95.28125 137.324219 94.570312 136.742188 C 93.859375 136.160156 93.179688 135.542969 92.53125 134.894531 C 91.882812 134.246094 91.265625 133.566406 90.683594 132.855469 C 90.097656 132.144531 89.554688 131.410156 89.042969 130.644531 C 88.53125 129.882812 88.0625 129.09375 87.628906 128.285156 C 87.195312 127.472656 86.804688 126.644531 86.453125 125.796875 C 86.101562 124.949219 85.789062 124.085938 85.523438 123.207031 C 85.257812 122.328125 85.035156 121.4375 84.855469 120.535156 C 84.675781 119.636719 84.542969 118.726562 84.453125 117.8125 C 84.363281 116.898438 84.316406 115.984375 84.316406 115.066406 C 84.316406 114.144531 84.363281 113.230469 84.453125 112.316406 C 84.542969 111.402344 84.675781 110.496094 84.855469 109.59375 C 85.035156 108.691406 85.257812 107.804688 85.523438 106.925781 C 85.789062 106.046875 86.101562 105.183594 86.453125 104.332031 C 86.800781 103.484375 87.195312 102.65625 87.628906 101.84375 C 88.0625 101.035156 88.53125 100.25 89.042969 99.484375 C 89.554688 98.722656 90.097656 97.984375 90.683594 97.273438 C 91.265625 96.566406 91.878906 95.886719 92.53125 95.234375 C 93.179688 94.585938 93.859375 93.96875 94.570312 93.386719 C 95.277344 92.804688 96.015625 92.257812 96.78125 91.746094 C 97.542969 91.238281 98.332031 90.765625 99.140625 90.332031 C 99.949219 89.898438 100.78125 89.507812 101.628906 89.15625 C 102.476562 88.804688 103.339844 88.496094 104.21875 88.230469 C 105.097656 87.960938 105.988281 87.738281 106.886719 87.5625 C 107.789062 87.382812 108.695312 87.246094 109.609375 87.15625 C 110.523438 87.066406 111.441406 87.023438 112.359375 87.023438 C 113.277344 87.023438 114.195312 87.066406 115.109375 87.15625 C 116.023438 87.246094 116.929688 87.382812 117.832031 87.5625 C 118.730469 87.738281 119.621094 87.960938 120.5 88.230469 C 121.378906 88.496094 122.242188 88.804688 123.089844 89.15625 C 123.941406 89.507812 124.769531 89.898438 125.578125 90.332031 C 126.390625 90.765625 127.175781 91.238281 127.9375 91.75 C 128.703125 92.257812 129.441406 92.804688 130.148438 93.386719 C 130.859375 93.96875 131.539062 94.585938 132.1875 95.234375 C 132.839844 95.886719 133.453125 96.566406 134.035156 97.273438 C 134.621094 97.984375 135.167969 98.722656 135.675781 99.484375 C 136.1875 100.25 136.65625 101.035156 137.089844 101.847656 C 137.523438 102.65625 137.917969 103.484375 138.269531 104.335938 C 138.621094 105.183594 138.929688 106.046875 139.195312 106.925781 C 139.460938 107.804688 139.683594 108.695312 139.863281 109.59375 C 140.042969 110.496094 140.175781 111.402344 140.265625 112.316406 C 140.359375 113.230469 140.402344 114.148438 140.402344 115.066406 C 140.402344 115.984375 140.355469 116.902344 140.265625 117.816406 C 140.171875 118.726562 140.039062 119.636719 139.859375 120.535156 C 139.679688 121.4375 139.453125 122.324219 139.1875 123.203125 C 138.917969 124.082031 138.609375 124.945312 138.257812 125.792969 C 137.90625 126.640625 137.515625 127.46875 137.082031 128.277344 C 136.648438 129.089844 136.175781 129.875 135.664062 130.636719 C 135.15625 131.402344 134.609375 132.136719 134.027344 132.847656 C 133.445312 133.554688 132.828125 134.234375 132.179688 134.886719 C 131.527344 135.535156 130.851562 136.148438 130.140625 136.734375 C 129.429688 137.316406 128.695312 137.863281 127.929688 138.371094 C 127.167969 138.882812 126.382812 139.355469 125.570312 139.785156 C 124.761719 140.21875 123.933594 140.613281 123.085938 140.964844 C 122.238281 141.316406 121.375 141.625 120.496094 141.894531 C 119.617188 142.160156 118.726562 142.382812 117.828125 142.5625 C 116.925781 142.742188 116.019531 142.878906 115.105469 142.96875 C 114.195312 143.058594 113.277344 143.105469 112.359375 143.109375 Z M 112.359375 91.484375 C 111.585938 91.484375 110.816406 91.523438 110.046875 91.601562 C 109.28125 91.675781 108.515625 91.789062 107.757812 91.941406 C 107.003906 92.089844 106.253906 92.277344 105.515625 92.5 C 104.777344 92.726562 104.050781 92.984375 103.335938 93.28125 C 102.621094 93.578125 101.925781 93.90625 101.246094 94.269531 C 100.5625 94.632812 99.902344 95.03125 99.261719 95.460938 C 98.617188 95.890625 98 96.347656 97.402344 96.839844 C 96.804688 97.328125 96.234375 97.847656 95.6875 98.390625 C 95.140625 98.9375 94.625 99.511719 94.132812 100.105469 C 93.644531 100.703125 93.183594 101.324219 92.753906 101.964844 C 92.324219 102.609375 91.929688 103.269531 91.566406 103.949219 C 91.203125 104.632812 90.871094 105.328125 90.574219 106.042969 C 90.28125 106.753906 90.019531 107.480469 89.796875 108.21875 C 89.574219 108.960938 89.386719 109.707031 89.234375 110.464844 C 89.082031 111.222656 88.96875 111.984375 88.894531 112.753906 C 88.820312 113.523438 88.78125 114.292969 88.78125 115.066406 C 88.78125 115.835938 88.820312 116.605469 88.894531 117.375 C 88.96875 118.144531 89.082031 118.90625 89.234375 119.664062 C 89.386719 120.421875 89.574219 121.171875 89.796875 121.910156 C 90.019531 122.648438 90.28125 123.375 90.574219 124.089844 C 90.871094 124.800781 91.203125 125.5 91.566406 126.179688 C 91.929688 126.859375 92.324219 127.523438 92.753906 128.164062 C 93.183594 128.804688 93.644531 129.425781 94.132812 130.023438 C 94.625 130.621094 95.140625 131.191406 95.6875 131.738281 C 96.234375 132.285156 96.804688 132.800781 97.402344 133.292969 C 98 133.78125 98.617188 134.242188 99.261719 134.667969 C 99.902344 135.097656 100.5625 135.496094 101.246094 135.859375 C 101.925781 136.222656 102.625 136.554688 103.335938 136.847656 C 104.050781 137.144531 104.777344 137.402344 105.515625 137.628906 C 106.253906 137.851562 107.003906 138.039062 107.761719 138.191406 C 108.515625 138.339844 109.28125 138.453125 110.046875 138.53125 C 110.816406 138.605469 111.585938 138.644531 112.359375 138.644531 C 113.132812 138.644531 113.902344 138.605469 114.671875 138.53125 C 115.4375 138.453125 116.203125 138.339844 116.960938 138.191406 C 117.71875 138.039062 118.464844 137.851562 119.203125 137.628906 C 119.941406 137.402344 120.667969 137.144531 121.382812 136.847656 C 122.097656 136.554688 122.792969 136.222656 123.472656 135.859375 C 124.15625 135.496094 124.816406 135.097656 125.460938 134.667969 C 126.101562 134.242188 126.722656 133.78125 127.316406 133.292969 C 127.914062 132.800781 128.484375 132.285156 129.03125 131.738281 C 129.578125 131.191406 130.097656 130.621094 130.585938 130.023438 C 131.074219 129.425781 131.535156 128.808594 131.964844 128.164062 C 132.394531 127.523438 132.789062 126.863281 133.152344 126.179688 C 133.519531 125.5 133.847656 124.800781 134.144531 124.089844 C 134.4375 123.375 134.699219 122.648438 134.921875 121.910156 C 135.148438 121.171875 135.335938 120.421875 135.484375 119.667969 C 135.636719 118.910156 135.75 118.144531 135.824219 117.378906 C 135.898438 116.609375 135.9375 115.839844 135.9375 115.066406 C 135.9375 114.296875 135.898438 113.523438 135.824219 112.757812 C 135.746094 111.988281 135.632812 111.226562 135.480469 110.46875 C 135.332031 109.710938 135.140625 108.964844 134.917969 108.226562 C 134.691406 107.484375 134.433594 106.761719 134.136719 106.046875 C 133.839844 105.332031 133.511719 104.636719 133.148438 103.957031 C 132.785156 103.273438 132.386719 102.613281 131.957031 101.972656 C 131.527344 101.332031 131.070312 100.710938 130.578125 100.113281 C 130.089844 99.515625 129.570312 98.945312 129.027344 98.398438 C 128.480469 97.855469 127.910156 97.335938 127.3125 96.847656 C 126.714844 96.355469 126.097656 95.898438 125.453125 95.46875 C 124.8125 95.039062 124.152344 94.640625 123.46875 94.277344 C 122.789062 93.914062 122.09375 93.582031 121.378906 93.289062 C 120.667969 92.992188 119.941406 92.730469 119.203125 92.507812 C 118.464844 92.28125 117.714844 92.09375 116.957031 91.945312 C 116.199219 91.792969 115.4375 91.679688 114.671875 91.601562 C 113.902344 91.527344 113.132812 91.488281 112.359375 91.484375 Z M 112.359375 91.484375 " fill-opacity="1" fill-rule="nonzero"/></svg>