<svg xmlns="http://www.w3.org/2000/svg" xmlns:xlink="http://www.w3.org/1999/xlink" width="300" zoomAndPan="magnify" viewBox="0 0 224.87999 225" height="300" preserveAspectRatio="xMidYMid meet" version="1.0"><defs><clipPath id="id1"><path d="M 0 0.0585938 L 224.761719 0.0585938 L 224.761719 224.9375 L 0 224.9375 Z M 0 0.0585938 " clip-rule="nonzero"/></clipPath></defs><g clip-path="url(#id1)"><path fill="#ead003" d="M 0 112.5 L 0 224.941406 L 224.878906 224.941406 L 224.878906 0.0585938 L 0 0.0585938 Z M 136.457031 183.957031 C 137.46875 183.382812 141.242188 181.199219 144.8125 179.128906 L 151.277344 175.382812 L 152.636719 177.386719 C 154.53125 180.273438 158.664062 184.238281 161.164062 185.558594 C 168.339844 189.34375 178.1875 188.808594 183.042969 184.453125 C 184.851562 182.925781 185.984375 180.65625 185.984375 178.128906 C 185.984375 177.976562 185.984375 177.835938 185.976562 177.6875 L 185.976562 177.707031 C 185.976562 175.101562 185.648438 173.957031 184.289062 171.988281 C 182.546875 169.496094 178.976562 167.398438 168.839844 162.996094 C 157.238281 158 152.242188 154.898438 147.671875 149.96875 C 144.917969 146.839844 142.789062 143.074219 141.550781 138.933594 L 141.496094 138.726562 C 140.644531 135.550781 140.429688 127.585938 141.101562 124.382812 C 143.492188 113.164062 151.953125 105.359375 164.164062 103.035156 C 168.125 102.285156 177.335938 102.566406 181.226562 103.53125 L 181.226562 103.542969 C 186.941406 104.964844 191.289062 107.503906 195.289062 111.648438 C 197.359375 113.859375 200.433594 117.886719 200.675781 118.863281 C 200.753906 119.144531 190.96875 125.703125 185.046875 129.382812 C 184.832031 129.523438 183.96875 128.597656 183.015625 127.171875 C 180.109375 122.957031 177.082031 121.140625 172.445312 120.820312 C 165.625 120.351562 161.238281 123.921875 161.277344 129.882812 C 161.277344 129.984375 161.265625 130.105469 161.265625 130.226562 C 161.265625 131.644531 161.625 132.972656 162.25 134.136719 L 162.230469 134.089844 C 163.730469 137.191406 166.523438 139.054688 175.257812 142.832031 C 191.363281 149.765625 198.25 154.328125 202.53125 160.820312 C 207.3125 168.0625 208.390625 179.636719 205.136719 188.238281 C 201.578125 197.589844 192.722656 203.941406 180.261719 206.039062 C 176.410156 206.726562 167.273438 206.621094 163.132812 205.871094 C 154.097656 204.261719 145.535156 199.800781 140.25 193.945312 C 138.179688 191.667969 134.140625 185.699219 134.394531 185.277344 C 134.496094 185.125 135.425781 184.554688 136.457031 183.957031 Z M 49.265625 113.109375 C 49.265625 108.105469 49.371094 103.925781 49.511719 103.832031 C 49.625 103.683594 67.4375 103.609375 89.023438 103.644531 L 128.332031 103.757812 L 128.433594 112.929688 L 128.507812 122.140625 L 99.226562 122.140625 L 99.226562 205.308594 L 78.519531 205.308594 L 78.519531 122.140625 L 49.265625 122.140625 Z M 49.265625 113.109375 " fill-opacity="1" fill-rule="nonzero"/></g></svg>