<svg xmlns="http://www.w3.org/2000/svg" xmlns:xlink="http://www.w3.org/1999/xlink" width="300" zoomAndPan="magnify" viewBox="0 0 224.87999 225" height="300" preserveAspectRatio="xMidYMid meet" version="1.0"><defs><clipPath id="id1"><path d="M 4.144531 8.351562 L 220.78125 8.351562 L 220.78125 224.9375 L 4.144531 224.9375 Z M 4.144531 8.351562 " clip-rule="nonzero"/></clipPath></defs><g clip-path="url(#id1)"><path fill="#ead003" d="M 193.800781 45.375 C 192.976562 44.300781 192.09375 43.4375 191.21875 42.535156 C 171.457031 21.546875 143.503906 8.351562 112.460938 8.351562 C 52.734375 8.351562 4.144531 56.9375 4.144531 116.667969 C 4.144531 176.394531 52.734375 224.984375 112.460938 224.984375 C 172.191406 224.984375 220.78125 176.394531 220.78125 116.667969 C 220.78125 89.363281 210.542969 64.449219 193.800781 45.375 Z M 112.460938 17.375 C 134.054688 17.375 153.992188 24.382812 170.304688 36.125 C 164.183594 37.777344 157.59375 43.003906 157.59375 57.996094 C 157.59375 64.359375 162.234375 72.238281 167.605469 81.355469 C 174.773438 93.53125 183.691406 108.6875 180.351562 119.890625 C 180.25 120.214844 180.277344 120.539062 180.257812 120.863281 C 175.167969 136.894531 168.75 157.050781 163.445312 173.722656 L 131.074219 72.601562 C 132.980469 72.265625 134.8125 71.851562 136.453125 71.300781 C 138.820312 70.515625 140.09375 67.960938 139.308594 65.597656 C 138.519531 63.230469 135.976562 61.949219 133.601562 62.742188 C 127.335938 64.828125 116.414062 64.765625 109.84375 64.765625 L 106.054688 64.765625 C 99.527344 64.765625 88.558594 64.828125 82.304688 62.734375 C 79.921875 61.949219 77.375 63.230469 76.589844 65.597656 C 75.796875 67.960938 77.078125 70.515625 79.445312 71.300781 C 82.574219 72.347656 86.367188 72.890625 90.230469 73.25 L 107.460938 121.8125 L 90.300781 170.824219 L 58.863281 72.601562 C 60.777344 72.257812 62.609375 71.851562 64.242188 71.300781 C 66.609375 70.515625 67.878906 67.960938 67.09375 65.597656 C 66.308594 63.230469 63.773438 61.949219 61.390625 62.742188 C 55.136719 64.828125 44.195312 64.847656 37.613281 64.765625 L 35.738281 64.765625 C 32.558594 64.765625 30.222656 64.449219 28.382812 64.105469 C 45.957031 36.097656 77.023438 17.375 112.460938 17.375 Z M 13.171875 116.667969 C 13.171875 103.632812 15.761719 91.210938 20.347656 79.804688 L 64.1875 203.355469 C 33.789062 186.359375 13.171875 153.890625 13.171875 116.667969 Z M 85.417969 212.121094 L 112.28125 135.378906 L 139.515625 212.121094 C 130.894531 214.558594 121.851562 215.957031 112.460938 215.957031 C 103.074219 215.957031 94.03125 214.558594 85.417969 212.121094 Z M 164.128906 201.289062 C 169.988281 182.921875 185.902344 132.988281 193.484375 109.003906 C 198.078125 94.488281 200.53125 82.078125 200.976562 71.933594 C 207.816406 85.390625 211.753906 100.5625 211.753906 116.667969 C 211.753906 152.476562 192.636719 183.824219 164.128906 201.289062 Z M 164.128906 201.289062 " fill-opacity="1" fill-rule="nonzero"/></g></svg>