<svg width="2302" height="2834" viewBox="0 0 2302 2834" fill="none" xmlns="http://www.w3.org/2000/svg">
<ellipse cx="1231" cy="2177.5" rx="154" ry="141.5" fill="url(#paint0_linear_214_136)"/>
<path d="M377 2212.32L761.467 2500.25" stroke="#BAAFBB" stroke-miterlimit="10"/>
<path d="M438.298 2174.5L801.64 2446.61" stroke="#BAAFBB" stroke-width="1.6364" stroke-miterlimit="10"/>
<path d="M499.595 2136.68L841.813 2392.96" stroke="#BAAFBB" stroke-width="2.2727" stroke-miterlimit="10"/>
<path d="M560.682 2098.69L881.986 2339.32" stroke="#BAAFBB" stroke-width="2.9091" stroke-miterlimit="10"/>
<path d="M622.163 2060.63L922.343 2285.43" stroke="#BAAFBB" stroke-width="3.5455" stroke-miterlimit="10"/>
<path d="M683.462 2022.8L962.517 2231.79" stroke="#BAAFBB" stroke-width="4.1818" stroke-miterlimit="10"/>
<path d="M744.76 1984.98L1002.69 2178.14" stroke="#BAAFBB" stroke-width="4.8182" stroke-miterlimit="10"/>
<path d="M806.058 1947.16L1042.86 2124.5" stroke="#BAAFBB" stroke-width="5.4545" stroke-miterlimit="10"/>
<path d="M867.356 1909.33L1083.04 2070.86" stroke="#BAAFBB" stroke-width="6.0909" stroke-miterlimit="10"/>
<path d="M928.653 1871.51L1123.21 2017.21" stroke="#BAAFBB" stroke-width="6.7273" stroke-miterlimit="10"/>
<path d="M989.74 1833.53L1163.38 1963.57" stroke="#BAAFBB" stroke-width="7.3636" stroke-miterlimit="10"/>
<path d="M1051.04 1795.7L1203.56 1909.93" stroke="#BAAFBB" stroke-width="8" stroke-miterlimit="10"/>
<rect x="1720.08" y="0.669556" width="781.92" height="2572.08" rx="390.96" transform="rotate(41.9545 1720.08 0.669556)" fill="url(#paint1_linear_214_136)"/>
<path d="M757.998 751.323L1142.47 1039.25" stroke="#BAAFBB" stroke-miterlimit="10"/>
<path d="M819.296 713.5L1182.64 985.605" stroke="#BAAFBB" stroke-width="1.6364" stroke-miterlimit="10"/>
<path d="M880.593 675.676L1222.81 931.962" stroke="#BAAFBB" stroke-width="2.2727" stroke-miterlimit="10"/>
<path d="M941.68 637.695L1262.98 878.318" stroke="#BAAFBB" stroke-width="2.9091" stroke-miterlimit="10"/>
<path d="M1003.16 599.627L1303.34 824.43" stroke="#BAAFBB" stroke-width="3.5455" stroke-miterlimit="10"/>
<path d="M1064.46 561.802L1343.52 770.786" stroke="#BAAFBB" stroke-width="4.1818" stroke-miterlimit="10"/>
<path d="M1125.76 523.979L1383.69 717.143" stroke="#BAAFBB" stroke-width="4.8182" stroke-miterlimit="10"/>
<path d="M1187.06 486.156L1423.86 663.5" stroke="#BAAFBB" stroke-width="5.4545" stroke-miterlimit="10"/>
<path d="M1248.35 448.332L1464.04 609.855" stroke="#BAAFBB" stroke-width="6.0909" stroke-miterlimit="10"/>
<path d="M1309.65 410.51L1504.21 556.213" stroke="#BAAFBB" stroke-width="6.7273" stroke-miterlimit="10"/>
<path d="M1370.74 372.528L1544.38 502.569" stroke="#BAAFBB" stroke-width="7.3636" stroke-miterlimit="10"/>
<path d="M1432.04 334.704L1584.55 448.925" stroke="#BAAFBB" stroke-width="8" stroke-miterlimit="10"/>
<rect x="1797.54" y="343.676" width="607.228" height="2727.63" rx="303.614" transform="rotate(39.334 1797.54 343.676)" stroke="#C4C4C4" stroke-opacity="0.72" stroke-width="7"/>
<path d="M292.25 2369.5C292.25 2428.87 247.031 2477 191.25 2477C135.47 2477 90.2504 2428.87 90.2504 2369.5C90.2504 2310.13 135.47 2262 191.25 2262C247.031 2262 292.25 2310.13 292.25 2369.5Z" fill="url(#paint2_linear_214_136)"/>
<path d="M292.25 2369.5C292.25 2428.87 247.031 2477 191.25 2477C135.47 2477 90.2504 2428.87 90.2504 2369.5C90.2504 2310.13 135.47 2262 191.25 2262C247.031 2262 292.25 2310.13 292.25 2369.5Z" fill="black" fill-opacity="0.2"/>
<ellipse cx="919.5" cy="2392.5" rx="55.5" ry="59.5" fill="url(#paint3_linear_214_136)"/>
<defs>
<linearGradient id="paint0_linear_214_136" x1="1115.5" y1="2069" x2="1432.43" y2="2274.81" gradientUnits="userSpaceOnUse">
<stop stop-color="#E902B3"/>
<stop offset="1"/>
</linearGradient>
<linearGradient id="paint1_linear_214_136" x1="2774.24" y1="2789.63" x2="1705.85" y2="2738.43" gradientUnits="userSpaceOnUse">
<stop stop-color="#FE1CBF" stop-opacity="0.771496"/>
<stop offset="0.0757955" stop-color="#E902B3" stop-opacity="0.81"/>
<stop offset="0.989393" stop-color="#01B37D" stop-opacity="0.74"/>
</linearGradient>
<linearGradient id="paint2_linear_214_136" x1="292" y1="2525.5" x2="52.6665" y2="2406.63" gradientUnits="userSpaceOnUse">
<stop/>
<stop offset="1" stop-color="#00FFB3"/>
</linearGradient>
<linearGradient id="paint3_linear_214_136" x1="920" y1="2452" x2="821.14" y2="2393.47" gradientUnits="userSpaceOnUse">
<stop/>
<stop offset="1" stop-color="#13E2A4" stop-opacity="0.74"/>
</linearGradient>
</defs>
</svg>
